%TF.GenerationSoftware,KiCad,Pcbnew,9.0.0*%
%TF.CreationDate,2026-06-03T02:01:09+03:00*%
%TF.ProjectId,summer project 1.1,73756d6d-6572-4207-9072-6f6a65637420,rev?*%
%TF.SameCoordinates,Original*%
%TF.FileFunction,Copper,L2,Bot*%
%TF.FilePolarity,Positive*%
%FSLAX46Y46*%
G04 Gerber Fmt 4.6, Leading zero omitted, Abs format (unit mm)*
G04 Created by KiCad (PCBNEW 9.0.0) date 2026-06-03 02:01:09*
%MOMM*%
%LPD*%
G01*
G04 APERTURE LIST*
G04 Aperture macros list*
%AMRoundRect*
0 Rectangle with rounded corners*
0 $1 Rounding radius*
0 $2 $3 $4 $5 $6 $7 $8 $9 X,Y pos of 4 corners*
0 Add a 4 corners polygon primitive as box body*
4,1,4,$2,$3,$4,$5,$6,$7,$8,$9,$2,$3,0*
0 Add four circle primitives for the rounded corners*
1,1,$1+$1,$2,$3*
1,1,$1+$1,$4,$5*
1,1,$1+$1,$6,$7*
1,1,$1+$1,$8,$9*
0 Add four rect primitives between the rounded corners*
20,1,$1+$1,$2,$3,$4,$5,0*
20,1,$1+$1,$4,$5,$6,$7,0*
20,1,$1+$1,$6,$7,$8,$9,0*
20,1,$1+$1,$8,$9,$2,$3,0*%
G04 Aperture macros list end*
%TA.AperFunction,ComponentPad*%
%ADD10RoundRect,0.760000X-1.140000X1.140000X-1.140000X-1.140000X1.140000X-1.140000X1.140000X1.140000X0*%
%TD*%
%TA.AperFunction,ComponentPad*%
%ADD11C,4.000000*%
%TD*%
%TA.AperFunction,ComponentPad*%
%ADD12RoundRect,0.760000X-1.140000X-1.140000X1.140000X-1.140000X1.140000X1.140000X-1.140000X1.140000X0*%
%TD*%
%TA.AperFunction,ComponentPad*%
%ADD13RoundRect,0.250000X-1.050000X1.050000X-1.050000X-1.050000X1.050000X-1.050000X1.050000X1.050000X0*%
%TD*%
%TA.AperFunction,ComponentPad*%
%ADD14C,2.600000*%
%TD*%
%TA.AperFunction,ViaPad*%
%ADD15C,1.000000*%
%TD*%
%TA.AperFunction,ViaPad*%
%ADD16C,0.600000*%
%TD*%
%TA.AperFunction,Conductor*%
%ADD17C,1.000000*%
%TD*%
G04 APERTURE END LIST*
D10*
%TO.P,J1,1,Pin_1*%
%TO.N,GND*%
X122220000Y-77420000D03*
D11*
%TO.P,J1,2,Pin_2*%
%TO.N,MAIN BATT*%
X122220000Y-82420000D03*
%TD*%
D12*
%TO.P,J2,1,Pin_1*%
%TO.N,GND*%
X137520000Y-91920000D03*
D11*
%TO.P,J2,2,Pin_2*%
%TO.N,BACKUP BATT*%
X142520000Y-91920000D03*
%TD*%
D13*
%TO.P,J3,1,Pin_1*%
%TO.N,VCC (Vout)*%
X160020000Y-79520000D03*
D14*
%TO.P,J3,2,Pin_2*%
%TO.N,GND*%
X160020000Y-84600000D03*
%TD*%
D15*
%TO.N,GND*%
X155490000Y-90320000D03*
X126470000Y-73970000D03*
X159426667Y-88510000D03*
D16*
X138780000Y-85730000D03*
D15*
X151840000Y-75160000D03*
X122825000Y-75320000D03*
D16*
X144030000Y-88260000D03*
D15*
X121620000Y-73750000D03*
X158000000Y-75160000D03*
D16*
X137150000Y-86350000D03*
D15*
X139669123Y-89727006D03*
D16*
X131700000Y-86780000D03*
D15*
X134120000Y-94220000D03*
X120120000Y-73840000D03*
D16*
X144800000Y-88160000D03*
D15*
X120760000Y-88630000D03*
X151850000Y-73350000D03*
X159596667Y-90320000D03*
X125815000Y-75320000D03*
X126910000Y-90440000D03*
X153843333Y-73350000D03*
X122753333Y-88630000D03*
D16*
%TO.N,VCC (Vout)*%
X130419000Y-79850000D03*
D15*
%TO.N,GND*%
X153893333Y-75160000D03*
D16*
X138760000Y-84940000D03*
%TO.N,VCC (Vout)*%
X148680000Y-85100000D03*
%TO.N,MAIN BATT*%
X128260000Y-85640000D03*
%TO.N,VCC (Vout)*%
X141430000Y-86130000D03*
D15*
%TO.N,GND*%
X134770000Y-89040000D03*
X157543334Y-90320000D03*
X139700000Y-93910000D03*
X153446667Y-88510000D03*
D16*
X132630000Y-86730000D03*
D15*
X150770000Y-87810000D03*
D16*
%TO.N,VCC (Vout)*%
X135580000Y-79600000D03*
D15*
%TO.N,GND*%
X121330000Y-75320000D03*
D16*
%TO.N,MAIN BATT*%
X134170000Y-85600000D03*
D15*
%TO.N,GND*%
X133830000Y-89890000D03*
X155440000Y-88510000D03*
X157010000Y-85150000D03*
X162480000Y-86460000D03*
X139363333Y-75970000D03*
X137720000Y-88210000D03*
X161770000Y-82250000D03*
X162980000Y-85380000D03*
X155836667Y-73350000D03*
X151830000Y-85840000D03*
X126740000Y-88630000D03*
X153436667Y-90320000D03*
X124746667Y-88630000D03*
X162620000Y-82940000D03*
D16*
X143330000Y-88270000D03*
D15*
X123390000Y-73730000D03*
X133700000Y-92880000D03*
X122803333Y-90440000D03*
D16*
X136380000Y-85980000D03*
D15*
X139120000Y-88210000D03*
X157830000Y-73350000D03*
X137200000Y-74160000D03*
X124320000Y-75320000D03*
X124856667Y-90440000D03*
X157433334Y-88510000D03*
X127310000Y-75320000D03*
X157070000Y-86540000D03*
X163090000Y-84070000D03*
X158310000Y-82060000D03*
X133710000Y-91340000D03*
X157040000Y-83620000D03*
D16*
X138180000Y-86470000D03*
X133250000Y-87030000D03*
D15*
X151910000Y-87090000D03*
X139193333Y-74160000D03*
X124975000Y-73970000D03*
X136080000Y-88250000D03*
D16*
X132830000Y-87720000D03*
D15*
X155946667Y-75160000D03*
X137310000Y-75970000D03*
X120750000Y-90440000D03*
%TD*%
D17*
%TO.N,MAIN BATT*%
X128260000Y-85640000D02*
X134130000Y-85640000D01*
%TO.N,VCC (Vout)*%
X130419000Y-79850000D02*
X135330000Y-79850000D01*
X135330000Y-79850000D02*
X135580000Y-79600000D01*
%TO.N,MAIN BATT*%
X134130000Y-85640000D02*
X134170000Y-85600000D01*
%TO.N,VCC (Vout)*%
X141430000Y-86130000D02*
X147650000Y-86130000D01*
X147650000Y-86130000D02*
X148680000Y-85100000D01*
%TD*%
%TA.AperFunction,Conductor*%
%TO.N,GND*%
G36*
X165962539Y-72540185D02*
G01*
X166008294Y-72592989D01*
X166019500Y-72644500D01*
X166019500Y-94595500D01*
X165999815Y-94662539D01*
X165947011Y-94708294D01*
X165895500Y-94719500D01*
X119744500Y-94719500D01*
X119677461Y-94699815D01*
X119631706Y-94647011D01*
X119620500Y-94595500D01*
X119620500Y-91779568D01*
X140019500Y-91779568D01*
X140019500Y-92060431D01*
X140050942Y-92339494D01*
X140050945Y-92339512D01*
X140113439Y-92613317D01*
X140113443Y-92613329D01*
X140206200Y-92878411D01*
X140328053Y-93131442D01*
X140328055Y-93131445D01*
X140477477Y-93369248D01*
X140652584Y-93588825D01*
X140851175Y-93787416D01*
X141070752Y-93962523D01*
X141308555Y-94111945D01*
X141561592Y-94233801D01*
X141760680Y-94303465D01*
X141826670Y-94326556D01*
X141826682Y-94326560D01*
X142100491Y-94389055D01*
X142100497Y-94389055D01*
X142100505Y-94389057D01*
X142286547Y-94410018D01*
X142379569Y-94420499D01*
X142379572Y-94420500D01*
X142379575Y-94420500D01*
X142660428Y-94420500D01*
X142660429Y-94420499D01*
X142803055Y-94404429D01*
X142939494Y-94389057D01*
X142939499Y-94389056D01*
X142939509Y-94389055D01*
X143213318Y-94326560D01*
X143478408Y-94233801D01*
X143731445Y-94111945D01*
X143969248Y-93962523D01*
X144188825Y-93787416D01*
X144387416Y-93588825D01*
X144562523Y-93369248D01*
X144711945Y-93131445D01*
X144833801Y-92878408D01*
X144926560Y-92613318D01*
X144989055Y-92339509D01*
X145020500Y-92060425D01*
X145020500Y-91779575D01*
X144989055Y-91500491D01*
X144926560Y-91226682D01*
X144833801Y-90961592D01*
X144711945Y-90708555D01*
X144562523Y-90470752D01*
X144387416Y-90251175D01*
X144188825Y-90052584D01*
X143969248Y-89877477D01*
X143731445Y-89728055D01*
X143731442Y-89728053D01*
X143478411Y-89606200D01*
X143213329Y-89513443D01*
X143213317Y-89513439D01*
X142939512Y-89450945D01*
X142939494Y-89450942D01*
X142660431Y-89419500D01*
X142660425Y-89419500D01*
X142379575Y-89419500D01*
X142379568Y-89419500D01*
X142100505Y-89450942D01*
X142100487Y-89450945D01*
X141826682Y-89513439D01*
X141826670Y-89513443D01*
X141561588Y-89606200D01*
X141308557Y-89728053D01*
X141070753Y-89877476D01*
X140851175Y-90052583D01*
X140652583Y-90251175D01*
X140477476Y-90470753D01*
X140328053Y-90708557D01*
X140206200Y-90961588D01*
X140113443Y-91226670D01*
X140113439Y-91226682D01*
X140050945Y-91500487D01*
X140050942Y-91500505D01*
X140019500Y-91779568D01*
X119620500Y-91779568D01*
X119620500Y-85738543D01*
X127259499Y-85738543D01*
X127297947Y-85931829D01*
X127297950Y-85931839D01*
X127373364Y-86113907D01*
X127373371Y-86113920D01*
X127482860Y-86277781D01*
X127482863Y-86277785D01*
X127622214Y-86417136D01*
X127622218Y-86417139D01*
X127786079Y-86526628D01*
X127786092Y-86526635D01*
X127968160Y-86602049D01*
X127968165Y-86602051D01*
X127968169Y-86602051D01*
X127968170Y-86602052D01*
X128161456Y-86640500D01*
X128161459Y-86640500D01*
X134228542Y-86640500D01*
X134259566Y-86634328D01*
X134325188Y-86621275D01*
X134421836Y-86602051D01*
X134475165Y-86579961D01*
X134603914Y-86526632D01*
X134767782Y-86417139D01*
X134907139Y-86277782D01*
X134907139Y-86277781D01*
X134947140Y-86237781D01*
X134953313Y-86228543D01*
X140429499Y-86228543D01*
X140467947Y-86421829D01*
X140467950Y-86421839D01*
X140543364Y-86603907D01*
X140543371Y-86603920D01*
X140652860Y-86767781D01*
X140652863Y-86767785D01*
X140792214Y-86907136D01*
X140792218Y-86907139D01*
X140956079Y-87016628D01*
X140956092Y-87016635D01*
X141138160Y-87092049D01*
X141138165Y-87092051D01*
X141138169Y-87092051D01*
X141138170Y-87092052D01*
X141331456Y-87130500D01*
X141331459Y-87130500D01*
X147748542Y-87130500D01*
X147779566Y-87124328D01*
X147845188Y-87111275D01*
X147941836Y-87092051D01*
X147995165Y-87069961D01*
X148123914Y-87016632D01*
X148287782Y-86907139D01*
X148427139Y-86767782D01*
X148427140Y-86767779D01*
X148434206Y-86760714D01*
X148434208Y-86760710D01*
X149457139Y-85737781D01*
X149566631Y-85573914D01*
X149642051Y-85391836D01*
X149680500Y-85198540D01*
X149680500Y-85001460D01*
X149680500Y-85001457D01*
X149680499Y-85001455D01*
X149664396Y-84920499D01*
X149642051Y-84808164D01*
X149566631Y-84626086D01*
X149566629Y-84626083D01*
X149566627Y-84626079D01*
X149457139Y-84462219D01*
X149457136Y-84462215D01*
X149317784Y-84322863D01*
X149317780Y-84322860D01*
X149153920Y-84213372D01*
X149153910Y-84213367D01*
X148971836Y-84137949D01*
X148971828Y-84137947D01*
X148778543Y-84099500D01*
X148778540Y-84099500D01*
X148581460Y-84099500D01*
X148581457Y-84099500D01*
X148388171Y-84137947D01*
X148388163Y-84137949D01*
X148206089Y-84213367D01*
X148206079Y-84213372D01*
X148042219Y-84322860D01*
X148042215Y-84322863D01*
X147271899Y-85093181D01*
X147210576Y-85126666D01*
X147184218Y-85129500D01*
X141331457Y-85129500D01*
X141138170Y-85167947D01*
X141138160Y-85167950D01*
X140956092Y-85243364D01*
X140956079Y-85243371D01*
X140792218Y-85352860D01*
X140792214Y-85352863D01*
X140652863Y-85492214D01*
X140652860Y-85492218D01*
X140543371Y-85656079D01*
X140543364Y-85656092D01*
X140467950Y-85838160D01*
X140467947Y-85838170D01*
X140429500Y-86031456D01*
X140429500Y-86031459D01*
X140429500Y-86228541D01*
X140429500Y-86228543D01*
X140429499Y-86228543D01*
X134953313Y-86228543D01*
X135056632Y-86073914D01*
X135132052Y-85891835D01*
X135170501Y-85698540D01*
X135170501Y-85501459D01*
X135170501Y-85501456D01*
X135170500Y-85501454D01*
X135140943Y-85352861D01*
X135132052Y-85308164D01*
X135056632Y-85126085D01*
X135056631Y-85126084D01*
X135056628Y-85126078D01*
X134947140Y-84962218D01*
X134947137Y-84962214D01*
X134807785Y-84822862D01*
X134807781Y-84822859D01*
X134643921Y-84713371D01*
X134643912Y-84713366D01*
X134461836Y-84637948D01*
X134461828Y-84637946D01*
X134268544Y-84599499D01*
X134268541Y-84599499D01*
X134071460Y-84599499D01*
X134071457Y-84599499D01*
X133882340Y-84637117D01*
X133858149Y-84639500D01*
X128161457Y-84639500D01*
X127968170Y-84677947D01*
X127968160Y-84677950D01*
X127786092Y-84753364D01*
X127786079Y-84753371D01*
X127622218Y-84862860D01*
X127622214Y-84862863D01*
X127482863Y-85002214D01*
X127482860Y-85002218D01*
X127373371Y-85166079D01*
X127373364Y-85166092D01*
X127297950Y-85348160D01*
X127297947Y-85348170D01*
X127259500Y-85541456D01*
X127259500Y-85541459D01*
X127259500Y-85738541D01*
X127259500Y-85738543D01*
X127259499Y-85738543D01*
X119620500Y-85738543D01*
X119620500Y-83291738D01*
X119640185Y-83224699D01*
X119692989Y-83178944D01*
X119762147Y-83169000D01*
X119825703Y-83198025D01*
X119861541Y-83250783D01*
X119906200Y-83378411D01*
X120028053Y-83631442D01*
X120028055Y-83631445D01*
X120177477Y-83869248D01*
X120352584Y-84088825D01*
X120551175Y-84287416D01*
X120770752Y-84462523D01*
X121008555Y-84611945D01*
X121261592Y-84733801D01*
X121460680Y-84803465D01*
X121526670Y-84826556D01*
X121526682Y-84826560D01*
X121800491Y-84889055D01*
X121800497Y-84889055D01*
X121800505Y-84889057D01*
X121986547Y-84910018D01*
X122079569Y-84920499D01*
X122079572Y-84920500D01*
X122079575Y-84920500D01*
X122360428Y-84920500D01*
X122360429Y-84920499D01*
X122503055Y-84904429D01*
X122639494Y-84889057D01*
X122639499Y-84889056D01*
X122639509Y-84889055D01*
X122913318Y-84826560D01*
X123178408Y-84733801D01*
X123431445Y-84611945D01*
X123669248Y-84462523D01*
X123888825Y-84287416D01*
X124087416Y-84088825D01*
X124262523Y-83869248D01*
X124411945Y-83631445D01*
X124533801Y-83378408D01*
X124626560Y-83113318D01*
X124689055Y-82839509D01*
X124720500Y-82560425D01*
X124720500Y-82279575D01*
X124689055Y-82000491D01*
X124626560Y-81726682D01*
X124533801Y-81461592D01*
X124411945Y-81208555D01*
X124262523Y-80970752D01*
X124087416Y-80751175D01*
X123888825Y-80552584D01*
X123669248Y-80377477D01*
X123505004Y-80274275D01*
X123431442Y-80228053D01*
X123178411Y-80106200D01*
X122913329Y-80013443D01*
X122913317Y-80013439D01*
X122639512Y-79950945D01*
X122639494Y-79950942D01*
X122618202Y-79948543D01*
X129418499Y-79948543D01*
X129456947Y-80141829D01*
X129456950Y-80141839D01*
X129532364Y-80323907D01*
X129532371Y-80323920D01*
X129641860Y-80487781D01*
X129641863Y-80487785D01*
X129781214Y-80627136D01*
X129781218Y-80627139D01*
X129945079Y-80736628D01*
X129945092Y-80736635D01*
X130127160Y-80812049D01*
X130127165Y-80812051D01*
X130127169Y-80812051D01*
X130127170Y-80812052D01*
X130320456Y-80850500D01*
X130320459Y-80850500D01*
X135428542Y-80850500D01*
X135459566Y-80844328D01*
X135525188Y-80831275D01*
X135621836Y-80812051D01*
X135675165Y-80789961D01*
X135803914Y-80736632D01*
X135967782Y-80627139D01*
X136107139Y-80487782D01*
X136107140Y-80487780D01*
X136357139Y-80237782D01*
X136466631Y-80073915D01*
X136542051Y-79891836D01*
X136580500Y-79698541D01*
X136580500Y-79501460D01*
X136580500Y-79501457D01*
X136580499Y-79501455D01*
X136542051Y-79308165D01*
X136466631Y-79126086D01*
X136466630Y-79126085D01*
X136466627Y-79126079D01*
X136357139Y-78962219D01*
X136357136Y-78962215D01*
X136217784Y-78822863D01*
X136217780Y-78822860D01*
X136053920Y-78713372D01*
X136053911Y-78713367D01*
X135871835Y-78637949D01*
X135871827Y-78637947D01*
X135678543Y-78599500D01*
X135678540Y-78599500D01*
X135481459Y-78599500D01*
X135481456Y-78599500D01*
X135288171Y-78637947D01*
X135288163Y-78637949D01*
X135106087Y-78713367D01*
X135106078Y-78713372D01*
X134937153Y-78826245D01*
X134936132Y-78824717D01*
X134879745Y-78848666D01*
X134865390Y-78849500D01*
X130320457Y-78849500D01*
X130127170Y-78887947D01*
X130127160Y-78887950D01*
X129945092Y-78963364D01*
X129945079Y-78963371D01*
X129781218Y-79072860D01*
X129781214Y-79072863D01*
X129641863Y-79212214D01*
X129641860Y-79212218D01*
X129532371Y-79376079D01*
X129532364Y-79376092D01*
X129456950Y-79558160D01*
X129456947Y-79558170D01*
X129418500Y-79751456D01*
X129418500Y-79751459D01*
X129418500Y-79948541D01*
X129418500Y-79948543D01*
X129418499Y-79948543D01*
X122618202Y-79948543D01*
X122360431Y-79919500D01*
X122360425Y-79919500D01*
X122079575Y-79919500D01*
X122079568Y-79919500D01*
X121800505Y-79950942D01*
X121800487Y-79950945D01*
X121526682Y-80013439D01*
X121526670Y-80013443D01*
X121261588Y-80106200D01*
X121008557Y-80228053D01*
X120770753Y-80377476D01*
X120551175Y-80552583D01*
X120352583Y-80751175D01*
X120177476Y-80970753D01*
X120028053Y-81208557D01*
X119906200Y-81461588D01*
X119861541Y-81589216D01*
X119820819Y-81645992D01*
X119755867Y-81671739D01*
X119687305Y-81658283D01*
X119636902Y-81609895D01*
X119620500Y-81548261D01*
X119620500Y-78419983D01*
X158219500Y-78419983D01*
X158219500Y-80620001D01*
X158219501Y-80620018D01*
X158230000Y-80722796D01*
X158230001Y-80722799D01*
X158272318Y-80850500D01*
X158285186Y-80889334D01*
X158377288Y-81038656D01*
X158501344Y-81162712D01*
X158650666Y-81254814D01*
X158817203Y-81309999D01*
X158919991Y-81320500D01*
X161120008Y-81320499D01*
X161222797Y-81309999D01*
X161389334Y-81254814D01*
X161538656Y-81162712D01*
X161662712Y-81038656D01*
X161754814Y-80889334D01*
X161809999Y-80722797D01*
X161820500Y-80620009D01*
X161820499Y-78419992D01*
X161809999Y-78317203D01*
X161754814Y-78150666D01*
X161662712Y-78001344D01*
X161538656Y-77877288D01*
X161389334Y-77785186D01*
X161222797Y-77730001D01*
X161222795Y-77730000D01*
X161120010Y-77719500D01*
X158919998Y-77719500D01*
X158919981Y-77719501D01*
X158817203Y-77730000D01*
X158817200Y-77730001D01*
X158650668Y-77785185D01*
X158650663Y-77785187D01*
X158501342Y-77877289D01*
X158377289Y-78001342D01*
X158285187Y-78150663D01*
X158285186Y-78150666D01*
X158230001Y-78317203D01*
X158230001Y-78317204D01*
X158230000Y-78317204D01*
X158219500Y-78419983D01*
X119620500Y-78419983D01*
X119620500Y-72644500D01*
X119640185Y-72577461D01*
X119692989Y-72531706D01*
X119744500Y-72520500D01*
X165895500Y-72520500D01*
X165962539Y-72540185D01*
G37*
%TD.AperFunction*%
%TD*%
M02*
