%TF.GenerationSoftware,KiCad,Pcbnew,9.0.0*%
%TF.CreationDate,2026-06-03T02:01:09+03:00*%
%TF.ProjectId,summer project 1.1,73756d6d-6572-4207-9072-6f6a65637420,rev?*%
%TF.SameCoordinates,Original*%
%TF.FileFunction,Legend,Top*%
%TF.FilePolarity,Positive*%
%FSLAX46Y46*%
G04 Gerber Fmt 4.6, Leading zero omitted, Abs format (unit mm)*
G04 Created by KiCad (PCBNEW 9.0.0) date 2026-06-03 02:01:09*
%MOMM*%
%LPD*%
G01*
G04 APERTURE LIST*
%ADD10C,0.125000*%
%ADD11C,0.150000*%
%ADD12C,0.120000*%
G04 APERTURE END LIST*
D10*
G36*
X152403213Y-92312748D02*
G01*
X152423275Y-92335676D01*
X152450266Y-92397370D01*
X152480835Y-92537111D01*
X152480835Y-92714078D01*
X152450267Y-92853818D01*
X152423276Y-92915511D01*
X152403210Y-92938443D01*
X152360071Y-92963095D01*
X152326599Y-92963095D01*
X152283460Y-92938444D01*
X152263393Y-92915511D01*
X152236402Y-92853818D01*
X152205835Y-92714078D01*
X152205835Y-92537111D01*
X152236403Y-92397368D01*
X152263393Y-92335677D01*
X152283459Y-92312745D01*
X152326599Y-92288095D01*
X152360071Y-92288095D01*
X152403213Y-92312748D01*
G37*
G36*
X153736547Y-92312748D02*
G01*
X153756609Y-92335676D01*
X153783600Y-92397370D01*
X153814169Y-92537111D01*
X153814169Y-92714078D01*
X153783601Y-92853818D01*
X153756610Y-92915511D01*
X153736544Y-92938443D01*
X153693405Y-92963095D01*
X153659933Y-92963095D01*
X153616794Y-92938444D01*
X153596727Y-92915511D01*
X153569736Y-92853818D01*
X153539169Y-92714078D01*
X153539169Y-92537111D01*
X153569737Y-92397368D01*
X153596727Y-92335677D01*
X153616793Y-92312745D01*
X153659933Y-92288095D01*
X153693405Y-92288095D01*
X153736547Y-92312748D01*
G37*
G36*
X155627699Y-92574358D02*
G01*
X155647502Y-92619621D01*
X155647502Y-92632911D01*
X155439169Y-92680530D01*
X155439169Y-92619620D01*
X155458970Y-92574359D01*
X155493267Y-92554761D01*
X155593404Y-92554761D01*
X155627699Y-92574358D01*
G37*
G36*
X156247502Y-92566626D02*
G01*
X156247502Y-92951229D01*
X156226738Y-92963095D01*
X156126600Y-92963095D01*
X156083458Y-92938442D01*
X156063393Y-92915510D01*
X156039169Y-92860140D01*
X156039169Y-92657715D01*
X156063393Y-92602346D01*
X156083459Y-92579413D01*
X156126600Y-92554761D01*
X156226738Y-92554761D01*
X156247502Y-92566626D01*
G37*
G36*
X158147501Y-92566626D02*
G01*
X158147501Y-92951229D01*
X158126737Y-92963095D01*
X158026599Y-92963095D01*
X157983457Y-92938442D01*
X157963392Y-92915510D01*
X157939168Y-92860140D01*
X157939168Y-92657715D01*
X157963392Y-92602346D01*
X157983458Y-92579413D01*
X158026599Y-92554761D01*
X158126737Y-92554761D01*
X158147501Y-92566626D01*
G37*
G36*
X158780834Y-92951229D02*
G01*
X158760070Y-92963095D01*
X158626598Y-92963095D01*
X158592303Y-92943498D01*
X158572501Y-92898235D01*
X158572501Y-92848192D01*
X158592303Y-92802929D01*
X158626598Y-92783333D01*
X158776668Y-92783333D01*
X158780834Y-92782504D01*
X158780834Y-92951229D01*
G37*
G36*
X155003214Y-92312748D02*
G01*
X155023276Y-92335676D01*
X155047502Y-92391048D01*
X155047502Y-92479188D01*
X155023276Y-92534560D01*
X155003214Y-92557488D01*
X154960072Y-92582142D01*
X154772502Y-92582142D01*
X154772502Y-92288095D01*
X154960072Y-92288095D01*
X155003214Y-92312748D01*
G37*
G36*
X164823296Y-93443151D02*
G01*
X149991945Y-93443151D01*
X149991945Y-92225595D01*
X150080834Y-92225595D01*
X150080834Y-93025595D01*
X150085592Y-93049513D01*
X150119416Y-93083337D01*
X150143334Y-93088095D01*
X150476668Y-93088095D01*
X150500586Y-93083337D01*
X150534410Y-93049513D01*
X150534410Y-93001677D01*
X150500586Y-92967853D01*
X150476668Y-92963095D01*
X150205834Y-92963095D01*
X150205834Y-92225595D01*
X150647501Y-92225595D01*
X150647501Y-93025595D01*
X150652259Y-93049513D01*
X150686083Y-93083337D01*
X150733919Y-93083337D01*
X150767743Y-93049513D01*
X150772501Y-93025595D01*
X150772501Y-92543984D01*
X150885473Y-92820650D01*
X150898920Y-92840994D01*
X150899232Y-92841125D01*
X150899364Y-92841438D01*
X150921243Y-92850372D01*
X150943020Y-92859521D01*
X150943333Y-92859392D01*
X150943650Y-92859522D01*
X150965511Y-92850337D01*
X150987306Y-92841438D01*
X150987437Y-92841125D01*
X150987750Y-92840994D01*
X151001197Y-92820650D01*
X151114168Y-92543986D01*
X151114168Y-93025595D01*
X151118926Y-93049513D01*
X151152750Y-93083337D01*
X151200586Y-93083337D01*
X151234410Y-93049513D01*
X151239168Y-93025595D01*
X151239168Y-92601099D01*
X151414406Y-92601099D01*
X151417061Y-92625341D01*
X151420308Y-92629211D01*
X151420645Y-92634252D01*
X151435292Y-92647068D01*
X151447808Y-92661984D01*
X151452842Y-92662424D01*
X151456645Y-92665752D01*
X151476069Y-92664457D01*
X151495462Y-92666154D01*
X151499332Y-92662906D01*
X151504373Y-92662570D01*
X151523704Y-92647703D01*
X151550125Y-92617507D01*
X151593265Y-92592857D01*
X151726737Y-92592857D01*
X151769877Y-92617508D01*
X151789943Y-92640441D01*
X151814168Y-92695810D01*
X151814168Y-92860139D01*
X151789943Y-92915510D01*
X151769876Y-92938443D01*
X151726737Y-92963095D01*
X151593265Y-92963095D01*
X151550126Y-92938444D01*
X151523705Y-92908248D01*
X151504374Y-92893381D01*
X151456646Y-92890198D01*
X151420645Y-92921698D01*
X151417462Y-92969426D01*
X151429631Y-92990560D01*
X151462964Y-93028656D01*
X151471177Y-93034973D01*
X151478993Y-93041765D01*
X151545660Y-93079861D01*
X151551090Y-93081677D01*
X151552750Y-93083337D01*
X151560901Y-93084958D01*
X151568787Y-93087596D01*
X151571052Y-93086978D01*
X151576668Y-93088095D01*
X151743335Y-93088095D01*
X151748950Y-93086977D01*
X151751217Y-93087596D01*
X151759101Y-93084958D01*
X151767253Y-93083337D01*
X151768913Y-93081676D01*
X151774344Y-93079860D01*
X151841010Y-93041765D01*
X151848822Y-93034974D01*
X151857037Y-93028657D01*
X151890371Y-92990560D01*
X151895134Y-92982288D01*
X151900595Y-92974455D01*
X151933928Y-92898265D01*
X151934111Y-92897430D01*
X151934410Y-92897132D01*
X151936668Y-92885777D01*
X151939156Y-92874445D01*
X151939001Y-92874050D01*
X151939168Y-92873214D01*
X151939168Y-92682738D01*
X151939001Y-92681899D01*
X151939155Y-92681507D01*
X151936673Y-92670199D01*
X151934410Y-92658820D01*
X151934111Y-92658521D01*
X151933928Y-92657687D01*
X151900595Y-92581496D01*
X151895136Y-92573666D01*
X151890371Y-92565390D01*
X151859716Y-92530357D01*
X152080835Y-92530357D01*
X152080835Y-92720833D01*
X152082150Y-92727448D01*
X152082279Y-92734189D01*
X152115612Y-92886570D01*
X152118082Y-92892228D01*
X152119408Y-92898266D01*
X152152742Y-92974456D01*
X152158202Y-92982288D01*
X152162965Y-92990560D01*
X152196298Y-93028656D01*
X152204511Y-93034973D01*
X152212327Y-93041765D01*
X152278994Y-93079861D01*
X152284424Y-93081677D01*
X152286084Y-93083337D01*
X152294235Y-93084958D01*
X152302121Y-93087596D01*
X152304386Y-93086978D01*
X152310002Y-93088095D01*
X152376668Y-93088095D01*
X152382283Y-93086978D01*
X152384549Y-93087596D01*
X152392432Y-93084958D01*
X152400586Y-93083337D01*
X152402246Y-93081676D01*
X152407676Y-93079860D01*
X152474344Y-93041765D01*
X152482158Y-93034972D01*
X152490372Y-93028656D01*
X152523705Y-92990560D01*
X152528467Y-92982288D01*
X152533928Y-92974456D01*
X152567262Y-92898266D01*
X152568587Y-92892228D01*
X152571058Y-92886570D01*
X152604391Y-92734189D01*
X152604519Y-92727448D01*
X152605835Y-92720833D01*
X152605835Y-92601099D01*
X152747740Y-92601099D01*
X152750395Y-92625341D01*
X152753642Y-92629211D01*
X152753979Y-92634252D01*
X152768626Y-92647068D01*
X152781142Y-92661984D01*
X152786176Y-92662424D01*
X152789979Y-92665752D01*
X152809403Y-92664457D01*
X152828796Y-92666154D01*
X152832666Y-92662906D01*
X152837707Y-92662570D01*
X152857038Y-92647703D01*
X152883459Y-92617507D01*
X152926599Y-92592857D01*
X153060071Y-92592857D01*
X153103211Y-92617508D01*
X153123277Y-92640441D01*
X153147502Y-92695810D01*
X153147502Y-92860139D01*
X153123277Y-92915510D01*
X153103210Y-92938443D01*
X153060071Y-92963095D01*
X152926599Y-92963095D01*
X152883460Y-92938444D01*
X152857039Y-92908248D01*
X152837708Y-92893381D01*
X152789980Y-92890198D01*
X152753979Y-92921698D01*
X152750796Y-92969426D01*
X152762965Y-92990560D01*
X152796298Y-93028656D01*
X152804511Y-93034973D01*
X152812327Y-93041765D01*
X152878994Y-93079861D01*
X152884424Y-93081677D01*
X152886084Y-93083337D01*
X152894235Y-93084958D01*
X152902121Y-93087596D01*
X152904386Y-93086978D01*
X152910002Y-93088095D01*
X153076669Y-93088095D01*
X153082284Y-93086977D01*
X153084551Y-93087596D01*
X153092435Y-93084958D01*
X153100587Y-93083337D01*
X153102247Y-93081676D01*
X153107678Y-93079860D01*
X153174344Y-93041765D01*
X153182156Y-93034974D01*
X153190371Y-93028657D01*
X153223705Y-92990560D01*
X153228468Y-92982288D01*
X153233929Y-92974455D01*
X153267262Y-92898265D01*
X153267445Y-92897430D01*
X153267744Y-92897132D01*
X153270002Y-92885777D01*
X153272490Y-92874445D01*
X153272335Y-92874050D01*
X153272502Y-92873214D01*
X153272502Y-92682738D01*
X153272335Y-92681899D01*
X153272489Y-92681507D01*
X153270007Y-92670199D01*
X153267744Y-92658820D01*
X153267445Y-92658521D01*
X153267262Y-92657687D01*
X153233929Y-92581496D01*
X153228470Y-92573666D01*
X153223705Y-92565390D01*
X153193050Y-92530357D01*
X153414169Y-92530357D01*
X153414169Y-92720833D01*
X153415484Y-92727448D01*
X153415613Y-92734189D01*
X153448946Y-92886570D01*
X153451416Y-92892228D01*
X153452742Y-92898266D01*
X153486076Y-92974456D01*
X153491536Y-92982288D01*
X153496299Y-92990560D01*
X153529632Y-93028656D01*
X153537845Y-93034973D01*
X153545661Y-93041765D01*
X153612328Y-93079861D01*
X153617758Y-93081677D01*
X153619418Y-93083337D01*
X153627569Y-93084958D01*
X153635455Y-93087596D01*
X153637720Y-93086978D01*
X153643336Y-93088095D01*
X153710002Y-93088095D01*
X153715617Y-93086978D01*
X153717883Y-93087596D01*
X153725766Y-93084958D01*
X153733920Y-93083337D01*
X153735580Y-93081676D01*
X153741010Y-93079860D01*
X153807678Y-93041765D01*
X153815492Y-93034972D01*
X153823706Y-93028656D01*
X153857039Y-92990560D01*
X153861801Y-92982288D01*
X153867262Y-92974456D01*
X153900596Y-92898266D01*
X153901921Y-92892228D01*
X153904392Y-92886570D01*
X153937725Y-92734189D01*
X153937853Y-92727448D01*
X153939169Y-92720833D01*
X153939169Y-92530357D01*
X153937853Y-92523741D01*
X153937725Y-92517001D01*
X153904392Y-92364620D01*
X153901920Y-92358960D01*
X153900596Y-92352925D01*
X153867262Y-92276734D01*
X153861801Y-92268900D01*
X153857038Y-92260628D01*
X153826383Y-92225595D01*
X154647502Y-92225595D01*
X154647502Y-93025595D01*
X154652260Y-93049513D01*
X154686084Y-93083337D01*
X154733920Y-93083337D01*
X154767744Y-93049513D01*
X154772502Y-93025595D01*
X154772502Y-92707142D01*
X154841659Y-92707142D01*
X155056705Y-93058239D01*
X155073255Y-93076150D01*
X155119765Y-93087327D01*
X155160557Y-93062342D01*
X155171734Y-93015832D01*
X155163299Y-92992951D01*
X154987360Y-92705703D01*
X154992433Y-92704005D01*
X155000587Y-92702384D01*
X155002247Y-92700723D01*
X155007677Y-92698907D01*
X155074345Y-92660812D01*
X155082167Y-92654012D01*
X155090372Y-92647703D01*
X155123705Y-92609609D01*
X155125468Y-92606547D01*
X155314169Y-92606547D01*
X155314169Y-92911309D01*
X155314335Y-92912145D01*
X155314181Y-92912540D01*
X155316668Y-92923872D01*
X155318927Y-92935227D01*
X155319225Y-92935525D01*
X155319409Y-92936360D01*
X155352742Y-93012550D01*
X155359707Y-93022541D01*
X155360587Y-93025768D01*
X155364060Y-93028786D01*
X155366688Y-93032556D01*
X155369797Y-93033772D01*
X155378994Y-93041765D01*
X155445661Y-93079861D01*
X155451091Y-93081677D01*
X155452751Y-93083337D01*
X155460902Y-93084958D01*
X155468788Y-93087596D01*
X155471053Y-93086978D01*
X155476669Y-93088095D01*
X155610002Y-93088095D01*
X155615617Y-93086978D01*
X155617883Y-93087596D01*
X155625766Y-93084958D01*
X155633920Y-93083337D01*
X155635580Y-93081676D01*
X155641010Y-93079860D01*
X155707678Y-93041765D01*
X155726084Y-93025767D01*
X155738670Y-92979619D01*
X155714937Y-92938085D01*
X155668788Y-92925499D01*
X155645661Y-92933234D01*
X155593405Y-92963095D01*
X155493266Y-92963095D01*
X155458971Y-92943498D01*
X155439169Y-92898235D01*
X155439169Y-92808754D01*
X155723929Y-92743667D01*
X155731045Y-92740480D01*
X155733920Y-92740480D01*
X155736252Y-92738147D01*
X155746185Y-92733699D01*
X155755439Y-92718960D01*
X155767744Y-92706656D01*
X155769867Y-92695982D01*
X155771622Y-92693188D01*
X155770981Y-92690383D01*
X155772502Y-92682738D01*
X155772502Y-92644642D01*
X155914169Y-92644642D01*
X155914169Y-92873214D01*
X155914335Y-92874050D01*
X155914181Y-92874445D01*
X155916668Y-92885777D01*
X155918927Y-92897132D01*
X155919225Y-92897430D01*
X155919409Y-92898265D01*
X155952742Y-92974456D01*
X155958204Y-92982292D01*
X155962966Y-92990561D01*
X155996300Y-93028657D01*
X156004514Y-93034974D01*
X156012327Y-93041765D01*
X156078993Y-93079860D01*
X156084423Y-93081676D01*
X156086084Y-93083337D01*
X156094236Y-93084958D01*
X156102121Y-93087596D01*
X156104386Y-93086978D01*
X156110002Y-93088095D01*
X156243336Y-93088095D01*
X156248951Y-93086977D01*
X156251218Y-93087596D01*
X156259102Y-93084958D01*
X156267254Y-93083337D01*
X156268914Y-93081676D01*
X156274345Y-93079860D01*
X156279602Y-93076855D01*
X156286084Y-93083337D01*
X156333920Y-93083337D01*
X156367744Y-93049513D01*
X156372502Y-93025595D01*
X156372502Y-92492261D01*
X156580835Y-92492261D01*
X156580835Y-92911309D01*
X156581001Y-92912146D01*
X156580847Y-92912541D01*
X156583335Y-92923878D01*
X156585593Y-92935227D01*
X156585891Y-92935525D01*
X156586075Y-92936360D01*
X156619409Y-93012552D01*
X156626375Y-93022544D01*
X156627254Y-93025767D01*
X156630724Y-93028783D01*
X156633355Y-93032557D01*
X156636467Y-93033774D01*
X156645660Y-93041765D01*
X156712326Y-93079860D01*
X156717756Y-93081676D01*
X156719417Y-93083337D01*
X156727569Y-93084958D01*
X156735454Y-93087596D01*
X156737719Y-93086978D01*
X156743335Y-93088095D01*
X156843335Y-93088095D01*
X156848950Y-93086978D01*
X156851216Y-93087596D01*
X156859099Y-93084958D01*
X156867253Y-93083337D01*
X156868913Y-93081676D01*
X156874343Y-93079860D01*
X156900814Y-93064734D01*
X156919417Y-93083337D01*
X156967253Y-93083337D01*
X157001077Y-93049513D01*
X157005835Y-93025595D01*
X157005835Y-92492261D01*
X157214168Y-92492261D01*
X157214168Y-93025595D01*
X157218926Y-93049513D01*
X157252750Y-93083337D01*
X157300586Y-93083337D01*
X157334410Y-93049513D01*
X157339168Y-93025595D01*
X157339168Y-92591936D01*
X157350125Y-92579413D01*
X157393266Y-92554761D01*
X157460070Y-92554761D01*
X157494365Y-92574358D01*
X157514168Y-92619621D01*
X157514168Y-93025595D01*
X157518926Y-93049513D01*
X157552750Y-93083337D01*
X157600586Y-93083337D01*
X157634410Y-93049513D01*
X157639168Y-93025595D01*
X157639168Y-92644642D01*
X157814168Y-92644642D01*
X157814168Y-92873214D01*
X157814334Y-92874050D01*
X157814180Y-92874445D01*
X157816667Y-92885777D01*
X157818926Y-92897132D01*
X157819224Y-92897430D01*
X157819408Y-92898265D01*
X157852741Y-92974456D01*
X157858203Y-92982292D01*
X157862965Y-92990561D01*
X157896299Y-93028657D01*
X157904513Y-93034974D01*
X157912326Y-93041765D01*
X157978992Y-93079860D01*
X157984422Y-93081676D01*
X157986083Y-93083337D01*
X157994235Y-93084958D01*
X158002120Y-93087596D01*
X158004385Y-93086978D01*
X158010001Y-93088095D01*
X158143335Y-93088095D01*
X158148950Y-93086977D01*
X158151217Y-93087596D01*
X158159101Y-93084958D01*
X158167253Y-93083337D01*
X158168913Y-93081676D01*
X158174344Y-93079860D01*
X158179601Y-93076855D01*
X158186083Y-93083337D01*
X158233919Y-93083337D01*
X158267743Y-93049513D01*
X158272501Y-93025595D01*
X158272501Y-92835119D01*
X158447501Y-92835119D01*
X158447501Y-92911309D01*
X158447667Y-92912145D01*
X158447513Y-92912540D01*
X158450000Y-92923872D01*
X158452259Y-92935227D01*
X158452557Y-92935525D01*
X158452741Y-92936360D01*
X158486074Y-93012550D01*
X158493039Y-93022541D01*
X158493919Y-93025768D01*
X158497392Y-93028786D01*
X158500020Y-93032556D01*
X158503129Y-93033772D01*
X158512326Y-93041765D01*
X158578993Y-93079861D01*
X158584423Y-93081677D01*
X158586083Y-93083337D01*
X158594234Y-93084958D01*
X158602120Y-93087596D01*
X158604385Y-93086978D01*
X158610001Y-93088095D01*
X158776668Y-93088095D01*
X158782283Y-93086977D01*
X158784550Y-93087596D01*
X158792434Y-93084958D01*
X158800586Y-93083337D01*
X158802246Y-93081676D01*
X158807677Y-93079860D01*
X158812934Y-93076855D01*
X158819416Y-93083337D01*
X158867252Y-93083337D01*
X158901076Y-93049513D01*
X158905834Y-93025595D01*
X158905834Y-92606547D01*
X158905667Y-92605710D01*
X158905822Y-92605316D01*
X158903334Y-92593983D01*
X158901076Y-92582629D01*
X158900777Y-92582330D01*
X158900594Y-92581496D01*
X158867261Y-92505306D01*
X158860295Y-92495313D01*
X158859463Y-92492261D01*
X159114167Y-92492261D01*
X159114167Y-93025595D01*
X159118925Y-93049513D01*
X159152749Y-93083337D01*
X159200585Y-93083337D01*
X159234409Y-93049513D01*
X159239167Y-93025595D01*
X159239167Y-92591936D01*
X159250124Y-92579413D01*
X159293265Y-92554761D01*
X159360069Y-92554761D01*
X159394364Y-92574358D01*
X159414167Y-92619621D01*
X159414167Y-93025595D01*
X159418925Y-93049513D01*
X159452749Y-93083337D01*
X159500585Y-93083337D01*
X159534409Y-93049513D01*
X159539167Y-93025595D01*
X159539167Y-92644642D01*
X159714167Y-92644642D01*
X159714167Y-92873214D01*
X159714333Y-92874050D01*
X159714179Y-92874445D01*
X159716666Y-92885777D01*
X159718925Y-92897132D01*
X159719223Y-92897430D01*
X159719407Y-92898265D01*
X159752740Y-92974456D01*
X159758202Y-92982292D01*
X159762964Y-92990561D01*
X159796298Y-93028657D01*
X159804512Y-93034974D01*
X159812325Y-93041765D01*
X159878991Y-93079860D01*
X159884421Y-93081676D01*
X159886082Y-93083337D01*
X159894234Y-93084958D01*
X159902119Y-93087596D01*
X159904384Y-93086978D01*
X159910000Y-93088095D01*
X160043334Y-93088095D01*
X160048949Y-93086977D01*
X160051216Y-93087596D01*
X160059100Y-93084958D01*
X160067252Y-93083337D01*
X160068912Y-93081676D01*
X160074343Y-93079860D01*
X160141009Y-93041765D01*
X160159415Y-93025767D01*
X160172001Y-92979618D01*
X160148268Y-92938085D01*
X160102119Y-92925499D01*
X160078991Y-92933235D01*
X160026736Y-92963095D01*
X159926598Y-92963095D01*
X159883456Y-92938442D01*
X159863391Y-92915510D01*
X159839167Y-92860140D01*
X159839167Y-92657715D01*
X159863391Y-92602346D01*
X159883457Y-92579413D01*
X159926598Y-92554761D01*
X160026736Y-92554761D01*
X160078990Y-92584622D01*
X160102118Y-92592358D01*
X160148267Y-92579772D01*
X160172000Y-92538239D01*
X160159415Y-92492090D01*
X160153162Y-92486655D01*
X160281086Y-92486655D01*
X160283679Y-92510903D01*
X160444171Y-93024482D01*
X160388337Y-93184011D01*
X160369876Y-93205109D01*
X160312325Y-93237996D01*
X160293919Y-93253994D01*
X160281333Y-93300143D01*
X160305067Y-93341676D01*
X160351216Y-93354262D01*
X160374343Y-93346526D01*
X160441009Y-93308431D01*
X160448824Y-93301637D01*
X160457036Y-93295323D01*
X160490370Y-93257228D01*
X160496303Y-93246924D01*
X160502325Y-93236718D01*
X160568991Y-93046241D01*
X160569140Y-93045179D01*
X160569655Y-93044237D01*
X160718338Y-92568452D01*
X161380833Y-92568452D01*
X161380833Y-92682738D01*
X161382148Y-92689353D01*
X161382277Y-92696094D01*
X161415610Y-92848475D01*
X161418080Y-92854133D01*
X161419406Y-92860171D01*
X161452740Y-92936361D01*
X161458202Y-92944196D01*
X161462964Y-92952465D01*
X161529629Y-93028656D01*
X161532997Y-93031246D01*
X161533759Y-93032945D01*
X161541615Y-93037874D01*
X161548960Y-93043523D01*
X161550815Y-93043646D01*
X161554416Y-93045906D01*
X161654416Y-93084000D01*
X161665565Y-93085886D01*
X161676666Y-93088095D01*
X161743333Y-93088095D01*
X161754415Y-93085890D01*
X161765583Y-93084001D01*
X161865582Y-93045906D01*
X161869182Y-93043646D01*
X161871039Y-93043523D01*
X161878388Y-93037870D01*
X161886239Y-93032945D01*
X161886999Y-93031248D01*
X161890370Y-93028656D01*
X161923703Y-92990560D01*
X161935872Y-92969426D01*
X161932689Y-92921698D01*
X161896688Y-92890198D01*
X161848960Y-92893381D01*
X161829629Y-92908248D01*
X161806541Y-92934634D01*
X161731830Y-92963095D01*
X161688168Y-92963095D01*
X161613454Y-92934632D01*
X161563392Y-92877418D01*
X161536400Y-92815723D01*
X161505833Y-92675983D01*
X161505833Y-92575206D01*
X161523977Y-92492261D01*
X162114166Y-92492261D01*
X162114166Y-93025595D01*
X162118924Y-93049513D01*
X162152748Y-93083337D01*
X162200584Y-93083337D01*
X162234408Y-93049513D01*
X162239166Y-93025595D01*
X162239166Y-92492261D01*
X162447499Y-92492261D01*
X162447499Y-93025595D01*
X162452257Y-93049513D01*
X162486081Y-93083337D01*
X162533917Y-93083337D01*
X162567741Y-93049513D01*
X162572499Y-93025595D01*
X162572499Y-92657717D01*
X162578219Y-92644642D01*
X162847499Y-92644642D01*
X162847499Y-92873214D01*
X162847665Y-92874050D01*
X162847511Y-92874445D01*
X162849998Y-92885777D01*
X162852257Y-92897132D01*
X162852555Y-92897430D01*
X162852739Y-92898265D01*
X162886072Y-92974456D01*
X162891534Y-92982292D01*
X162896296Y-92990561D01*
X162929630Y-93028657D01*
X162937844Y-93034974D01*
X162945657Y-93041765D01*
X163012323Y-93079860D01*
X163017753Y-93081676D01*
X163019414Y-93083337D01*
X163027566Y-93084958D01*
X163035451Y-93087596D01*
X163037716Y-93086978D01*
X163043332Y-93088095D01*
X163176666Y-93088095D01*
X163182281Y-93086977D01*
X163184548Y-93087596D01*
X163192432Y-93084958D01*
X163200584Y-93083337D01*
X163202244Y-93081676D01*
X163207675Y-93079860D01*
X163274341Y-93041765D01*
X163292747Y-93025767D01*
X163305333Y-92979618D01*
X163281600Y-92938085D01*
X163235451Y-92925499D01*
X163212323Y-92933235D01*
X163160068Y-92963095D01*
X163059930Y-92963095D01*
X163016788Y-92938442D01*
X162996723Y-92915510D01*
X162972499Y-92860140D01*
X162972499Y-92657715D01*
X162996723Y-92602346D01*
X163016789Y-92579413D01*
X163059930Y-92554761D01*
X163160068Y-92554761D01*
X163212322Y-92584622D01*
X163235450Y-92592358D01*
X163281599Y-92579772D01*
X163305332Y-92538239D01*
X163292794Y-92492261D01*
X163480832Y-92492261D01*
X163480832Y-92911309D01*
X163480998Y-92912146D01*
X163480844Y-92912541D01*
X163483332Y-92923878D01*
X163485590Y-92935227D01*
X163485888Y-92935525D01*
X163486072Y-92936360D01*
X163519406Y-93012552D01*
X163526372Y-93022544D01*
X163527251Y-93025767D01*
X163530721Y-93028783D01*
X163533352Y-93032557D01*
X163536464Y-93033774D01*
X163545657Y-93041765D01*
X163612323Y-93079860D01*
X163617753Y-93081676D01*
X163619414Y-93083337D01*
X163627566Y-93084958D01*
X163635451Y-93087596D01*
X163637716Y-93086978D01*
X163643332Y-93088095D01*
X163743332Y-93088095D01*
X163748947Y-93086978D01*
X163751213Y-93087596D01*
X163759096Y-93084958D01*
X163767250Y-93083337D01*
X163768910Y-93081676D01*
X163774340Y-93079860D01*
X163800811Y-93064734D01*
X163819414Y-93083337D01*
X163867250Y-93083337D01*
X163901074Y-93049513D01*
X163905832Y-93025595D01*
X163905832Y-92492261D01*
X164114165Y-92492261D01*
X164114165Y-93025595D01*
X164118923Y-93049513D01*
X164152747Y-93083337D01*
X164200583Y-93083337D01*
X164234407Y-93049513D01*
X164239165Y-93025595D01*
X164239165Y-92492261D01*
X164234407Y-92468343D01*
X164352256Y-92468343D01*
X164352256Y-92516179D01*
X164386080Y-92550003D01*
X164409998Y-92554761D01*
X164447498Y-92554761D01*
X164447498Y-92911309D01*
X164447664Y-92912146D01*
X164447510Y-92912541D01*
X164449998Y-92923878D01*
X164452256Y-92935227D01*
X164452554Y-92935525D01*
X164452738Y-92936360D01*
X164486072Y-93012552D01*
X164493038Y-93022544D01*
X164493917Y-93025767D01*
X164497387Y-93028783D01*
X164500018Y-93032557D01*
X164503130Y-93033774D01*
X164512323Y-93041765D01*
X164578989Y-93079860D01*
X164584419Y-93081676D01*
X164586080Y-93083337D01*
X164594232Y-93084958D01*
X164602117Y-93087596D01*
X164604382Y-93086978D01*
X164609998Y-93088095D01*
X164676665Y-93088095D01*
X164700583Y-93083337D01*
X164734407Y-93049513D01*
X164734407Y-93001677D01*
X164700583Y-92967853D01*
X164676665Y-92963095D01*
X164626596Y-92963095D01*
X164592300Y-92943497D01*
X164572498Y-92898234D01*
X164572498Y-92554761D01*
X164676665Y-92554761D01*
X164700583Y-92550003D01*
X164734407Y-92516179D01*
X164734407Y-92468343D01*
X164700583Y-92434519D01*
X164676665Y-92429761D01*
X164572498Y-92429761D01*
X164572498Y-92225595D01*
X164567740Y-92201677D01*
X164533916Y-92167853D01*
X164486080Y-92167853D01*
X164452256Y-92201677D01*
X164447498Y-92225595D01*
X164447498Y-92429761D01*
X164409998Y-92429761D01*
X164386080Y-92434519D01*
X164352256Y-92468343D01*
X164234407Y-92468343D01*
X164200583Y-92434519D01*
X164152747Y-92434519D01*
X164118923Y-92468343D01*
X164114165Y-92492261D01*
X163905832Y-92492261D01*
X163901074Y-92468343D01*
X163867250Y-92434519D01*
X163819414Y-92434519D01*
X163785590Y-92468343D01*
X163780832Y-92492261D01*
X163780832Y-92925920D01*
X163769874Y-92938443D01*
X163726735Y-92963095D01*
X163659930Y-92963095D01*
X163625634Y-92943497D01*
X163605832Y-92898234D01*
X163605832Y-92492261D01*
X163601074Y-92468343D01*
X163567250Y-92434519D01*
X163519414Y-92434519D01*
X163485590Y-92468343D01*
X163480832Y-92492261D01*
X163292794Y-92492261D01*
X163292747Y-92492090D01*
X163274341Y-92476092D01*
X163207675Y-92437996D01*
X163202244Y-92436179D01*
X163200584Y-92434519D01*
X163192432Y-92432897D01*
X163184548Y-92430260D01*
X163182281Y-92430878D01*
X163176666Y-92429761D01*
X163043332Y-92429761D01*
X163037716Y-92430878D01*
X163035450Y-92430260D01*
X163027564Y-92432897D01*
X163019414Y-92434519D01*
X163017753Y-92436179D01*
X163012322Y-92437996D01*
X162945657Y-92476092D01*
X162937841Y-92482885D01*
X162929630Y-92489200D01*
X162896296Y-92527295D01*
X162891533Y-92535565D01*
X162886072Y-92543400D01*
X162852739Y-92619591D01*
X162852555Y-92620425D01*
X162852257Y-92620724D01*
X162849998Y-92632078D01*
X162847511Y-92643411D01*
X162847665Y-92643805D01*
X162847499Y-92644642D01*
X162578219Y-92644642D01*
X162596725Y-92602343D01*
X162616789Y-92579413D01*
X162659931Y-92554761D01*
X162709999Y-92554761D01*
X162733917Y-92550003D01*
X162767741Y-92516179D01*
X162767741Y-92468343D01*
X162733917Y-92434519D01*
X162709999Y-92429761D01*
X162643333Y-92429761D01*
X162637717Y-92430878D01*
X162635451Y-92430260D01*
X162627566Y-92432897D01*
X162619415Y-92434519D01*
X162617754Y-92436179D01*
X162612324Y-92437996D01*
X162564641Y-92465243D01*
X162533917Y-92434519D01*
X162486081Y-92434519D01*
X162452257Y-92468343D01*
X162447499Y-92492261D01*
X162239166Y-92492261D01*
X162234408Y-92468343D01*
X162200584Y-92434519D01*
X162152748Y-92434519D01*
X162118924Y-92468343D01*
X162114166Y-92492261D01*
X161523977Y-92492261D01*
X161536401Y-92435463D01*
X161563392Y-92373771D01*
X161613454Y-92316557D01*
X161688168Y-92288095D01*
X161731830Y-92288095D01*
X161806543Y-92316556D01*
X161829630Y-92342941D01*
X161848960Y-92357808D01*
X161896689Y-92360990D01*
X161932689Y-92329490D01*
X161935871Y-92281762D01*
X161923702Y-92260628D01*
X161908861Y-92243667D01*
X162084128Y-92243667D01*
X162085462Y-92263690D01*
X162084128Y-92283713D01*
X162087147Y-92288956D01*
X162087310Y-92291395D01*
X162089812Y-92293584D01*
X162096297Y-92304846D01*
X162129630Y-92342941D01*
X162148960Y-92357808D01*
X162151176Y-92357955D01*
X162152748Y-92359527D01*
X162154970Y-92359527D01*
X162156642Y-92360990D01*
X162176668Y-92359655D01*
X162196689Y-92360990D01*
X162198361Y-92359527D01*
X162200584Y-92359527D01*
X162202154Y-92357956D01*
X162204370Y-92357809D01*
X162223702Y-92342942D01*
X162257036Y-92304847D01*
X162263521Y-92293583D01*
X162266024Y-92291394D01*
X162266186Y-92288956D01*
X162269205Y-92283714D01*
X162267870Y-92263690D01*
X162269205Y-92243667D01*
X164084127Y-92243667D01*
X164085461Y-92263690D01*
X164084127Y-92283713D01*
X164087146Y-92288956D01*
X164087309Y-92291395D01*
X164089811Y-92293584D01*
X164096296Y-92304846D01*
X164129629Y-92342941D01*
X164148959Y-92357808D01*
X164151175Y-92357955D01*
X164152747Y-92359527D01*
X164154969Y-92359527D01*
X164156641Y-92360990D01*
X164176667Y-92359655D01*
X164196688Y-92360990D01*
X164198360Y-92359527D01*
X164200583Y-92359527D01*
X164202153Y-92357956D01*
X164204369Y-92357809D01*
X164223701Y-92342942D01*
X164257035Y-92304847D01*
X164263520Y-92293583D01*
X164266023Y-92291394D01*
X164266185Y-92288956D01*
X164269204Y-92283714D01*
X164267869Y-92263690D01*
X164269204Y-92243666D01*
X164266185Y-92238423D01*
X164266023Y-92235986D01*
X164263520Y-92233796D01*
X164257035Y-92222533D01*
X164223701Y-92184438D01*
X164204369Y-92169571D01*
X164202153Y-92169423D01*
X164200583Y-92167853D01*
X164198360Y-92167853D01*
X164196688Y-92166390D01*
X164176667Y-92167724D01*
X164156641Y-92166390D01*
X164154969Y-92167853D01*
X164152747Y-92167853D01*
X164151175Y-92169424D01*
X164148959Y-92169572D01*
X164129629Y-92184439D01*
X164096296Y-92222534D01*
X164089811Y-92233795D01*
X164087309Y-92235985D01*
X164087146Y-92238423D01*
X164084127Y-92243667D01*
X162269205Y-92243667D01*
X162269205Y-92243666D01*
X162266186Y-92238423D01*
X162266024Y-92235986D01*
X162263521Y-92233796D01*
X162257036Y-92222533D01*
X162223702Y-92184438D01*
X162204370Y-92169571D01*
X162202154Y-92169423D01*
X162200584Y-92167853D01*
X162198361Y-92167853D01*
X162196689Y-92166390D01*
X162176668Y-92167724D01*
X162156642Y-92166390D01*
X162154970Y-92167853D01*
X162152748Y-92167853D01*
X162151176Y-92169424D01*
X162148960Y-92169572D01*
X162129630Y-92184439D01*
X162096297Y-92222534D01*
X162089812Y-92233795D01*
X162087310Y-92235985D01*
X162087147Y-92238423D01*
X162084128Y-92243667D01*
X161908861Y-92243667D01*
X161890369Y-92222534D01*
X161887000Y-92219943D01*
X161886239Y-92218245D01*
X161878382Y-92213315D01*
X161871038Y-92207667D01*
X161869182Y-92207543D01*
X161865582Y-92205284D01*
X161765583Y-92167189D01*
X161754415Y-92165299D01*
X161743333Y-92163095D01*
X161676666Y-92163095D01*
X161665565Y-92165303D01*
X161654416Y-92167190D01*
X161554416Y-92205284D01*
X161550816Y-92207542D01*
X161548961Y-92207666D01*
X161541613Y-92213316D01*
X161533759Y-92218245D01*
X161532997Y-92219942D01*
X161529630Y-92222533D01*
X161462964Y-92298724D01*
X161458204Y-92306988D01*
X161452740Y-92314828D01*
X161419406Y-92391020D01*
X161418081Y-92397055D01*
X161415610Y-92402715D01*
X161382277Y-92555096D01*
X161382148Y-92561836D01*
X161380833Y-92568452D01*
X160718338Y-92568452D01*
X160736322Y-92510903D01*
X160738915Y-92486655D01*
X160716719Y-92444282D01*
X160671061Y-92430013D01*
X160628688Y-92452209D01*
X160617012Y-92473619D01*
X160510000Y-92816056D01*
X160402989Y-92473619D01*
X160391314Y-92452209D01*
X160348940Y-92430013D01*
X160303282Y-92444281D01*
X160281086Y-92486655D01*
X160153162Y-92486655D01*
X160141009Y-92476092D01*
X160074343Y-92437996D01*
X160068912Y-92436179D01*
X160067252Y-92434519D01*
X160059100Y-92432897D01*
X160051216Y-92430260D01*
X160048949Y-92430878D01*
X160043334Y-92429761D01*
X159910000Y-92429761D01*
X159904384Y-92430878D01*
X159902118Y-92430260D01*
X159894232Y-92432897D01*
X159886082Y-92434519D01*
X159884421Y-92436179D01*
X159878990Y-92437996D01*
X159812325Y-92476092D01*
X159804509Y-92482885D01*
X159796298Y-92489200D01*
X159762964Y-92527295D01*
X159758201Y-92535565D01*
X159752740Y-92543400D01*
X159719407Y-92619591D01*
X159719223Y-92620425D01*
X159718925Y-92620724D01*
X159716666Y-92632078D01*
X159714179Y-92643411D01*
X159714333Y-92643805D01*
X159714167Y-92644642D01*
X159539167Y-92644642D01*
X159539167Y-92606547D01*
X159539000Y-92605710D01*
X159539155Y-92605316D01*
X159536667Y-92593983D01*
X159534409Y-92582629D01*
X159534110Y-92582330D01*
X159533927Y-92581496D01*
X159500594Y-92505306D01*
X159493628Y-92495313D01*
X159492749Y-92492090D01*
X159489278Y-92489073D01*
X159486648Y-92485300D01*
X159483535Y-92484082D01*
X159474343Y-92476092D01*
X159407676Y-92437996D01*
X159402245Y-92436179D01*
X159400585Y-92434519D01*
X159392433Y-92432897D01*
X159384549Y-92430260D01*
X159382282Y-92430878D01*
X159376667Y-92429761D01*
X159276667Y-92429761D01*
X159271051Y-92430878D01*
X159268785Y-92430260D01*
X159260899Y-92432897D01*
X159252749Y-92434519D01*
X159251088Y-92436179D01*
X159245657Y-92437996D01*
X159219187Y-92453121D01*
X159200585Y-92434519D01*
X159152749Y-92434519D01*
X159118925Y-92468343D01*
X159114167Y-92492261D01*
X158859463Y-92492261D01*
X158859416Y-92492090D01*
X158855945Y-92489073D01*
X158853315Y-92485300D01*
X158850202Y-92484082D01*
X158841010Y-92476092D01*
X158774343Y-92437996D01*
X158768912Y-92436179D01*
X158767252Y-92434519D01*
X158759100Y-92432897D01*
X158751216Y-92430260D01*
X158748949Y-92430878D01*
X158743334Y-92429761D01*
X158610001Y-92429761D01*
X158604385Y-92430878D01*
X158602119Y-92430260D01*
X158594234Y-92432897D01*
X158586083Y-92434519D01*
X158584422Y-92436179D01*
X158578992Y-92437996D01*
X158512325Y-92476092D01*
X158493919Y-92492090D01*
X158481333Y-92538239D01*
X158505067Y-92579772D01*
X158551216Y-92592358D01*
X158574343Y-92584622D01*
X158626599Y-92554761D01*
X158726736Y-92554761D01*
X158761031Y-92574358D01*
X158780834Y-92619621D01*
X158780834Y-92646467D01*
X158760070Y-92658333D01*
X158610001Y-92658333D01*
X158604385Y-92659449D01*
X158602120Y-92658832D01*
X158594234Y-92661469D01*
X158586083Y-92663091D01*
X158584423Y-92664750D01*
X158578993Y-92666567D01*
X158512326Y-92704663D01*
X158503129Y-92712655D01*
X158500020Y-92713872D01*
X158497392Y-92717641D01*
X158493919Y-92720660D01*
X158493039Y-92723886D01*
X158486074Y-92733878D01*
X158452741Y-92810068D01*
X158452557Y-92810902D01*
X158452259Y-92811201D01*
X158450000Y-92822555D01*
X158447513Y-92833888D01*
X158447667Y-92834282D01*
X158447501Y-92835119D01*
X158272501Y-92835119D01*
X158272501Y-92225595D01*
X158267743Y-92201677D01*
X158233919Y-92167853D01*
X158186083Y-92167853D01*
X158152259Y-92201677D01*
X158147501Y-92225595D01*
X158147501Y-92430589D01*
X158143335Y-92429761D01*
X158010001Y-92429761D01*
X158004385Y-92430878D01*
X158002119Y-92430260D01*
X157994233Y-92432897D01*
X157986083Y-92434519D01*
X157984422Y-92436179D01*
X157978991Y-92437996D01*
X157912326Y-92476092D01*
X157904510Y-92482885D01*
X157896299Y-92489200D01*
X157862965Y-92527295D01*
X157858202Y-92535565D01*
X157852741Y-92543400D01*
X157819408Y-92619591D01*
X157819224Y-92620425D01*
X157818926Y-92620724D01*
X157816667Y-92632078D01*
X157814180Y-92643411D01*
X157814334Y-92643805D01*
X157814168Y-92644642D01*
X157639168Y-92644642D01*
X157639168Y-92606547D01*
X157639001Y-92605710D01*
X157639156Y-92605316D01*
X157636668Y-92593983D01*
X157634410Y-92582629D01*
X157634111Y-92582330D01*
X157633928Y-92581496D01*
X157600595Y-92505306D01*
X157593629Y-92495313D01*
X157592750Y-92492090D01*
X157589279Y-92489073D01*
X157586649Y-92485300D01*
X157583536Y-92484082D01*
X157574344Y-92476092D01*
X157507677Y-92437996D01*
X157502246Y-92436179D01*
X157500586Y-92434519D01*
X157492434Y-92432897D01*
X157484550Y-92430260D01*
X157482283Y-92430878D01*
X157476668Y-92429761D01*
X157376668Y-92429761D01*
X157371052Y-92430878D01*
X157368786Y-92430260D01*
X157360900Y-92432897D01*
X157352750Y-92434519D01*
X157351089Y-92436179D01*
X157345658Y-92437996D01*
X157319188Y-92453121D01*
X157300586Y-92434519D01*
X157252750Y-92434519D01*
X157218926Y-92468343D01*
X157214168Y-92492261D01*
X157005835Y-92492261D01*
X157001077Y-92468343D01*
X156967253Y-92434519D01*
X156919417Y-92434519D01*
X156885593Y-92468343D01*
X156880835Y-92492261D01*
X156880835Y-92925920D01*
X156869877Y-92938443D01*
X156826738Y-92963095D01*
X156759933Y-92963095D01*
X156725637Y-92943497D01*
X156705835Y-92898234D01*
X156705835Y-92492261D01*
X156701077Y-92468343D01*
X156667253Y-92434519D01*
X156619417Y-92434519D01*
X156585593Y-92468343D01*
X156580835Y-92492261D01*
X156372502Y-92492261D01*
X156372502Y-92225595D01*
X156367744Y-92201677D01*
X156333920Y-92167853D01*
X156286084Y-92167853D01*
X156252260Y-92201677D01*
X156247502Y-92225595D01*
X156247502Y-92430589D01*
X156243336Y-92429761D01*
X156110002Y-92429761D01*
X156104386Y-92430878D01*
X156102120Y-92430260D01*
X156094234Y-92432897D01*
X156086084Y-92434519D01*
X156084423Y-92436179D01*
X156078992Y-92437996D01*
X156012327Y-92476092D01*
X156004511Y-92482885D01*
X155996300Y-92489200D01*
X155962966Y-92527295D01*
X155958203Y-92535565D01*
X155952742Y-92543400D01*
X155919409Y-92619591D01*
X155919225Y-92620425D01*
X155918927Y-92620724D01*
X155916668Y-92632078D01*
X155914181Y-92643411D01*
X155914335Y-92643805D01*
X155914169Y-92644642D01*
X155772502Y-92644642D01*
X155772502Y-92606547D01*
X155772335Y-92605710D01*
X155772490Y-92605316D01*
X155770002Y-92593983D01*
X155767744Y-92582629D01*
X155767445Y-92582330D01*
X155767262Y-92581496D01*
X155733929Y-92505306D01*
X155726963Y-92495313D01*
X155726084Y-92492090D01*
X155722613Y-92489073D01*
X155719983Y-92485300D01*
X155716870Y-92484082D01*
X155707678Y-92476092D01*
X155641011Y-92437996D01*
X155635580Y-92436179D01*
X155633920Y-92434519D01*
X155625768Y-92432897D01*
X155617884Y-92430260D01*
X155615617Y-92430878D01*
X155610002Y-92429761D01*
X155476669Y-92429761D01*
X155471053Y-92430878D01*
X155468787Y-92430260D01*
X155460902Y-92432897D01*
X155452751Y-92434519D01*
X155451090Y-92436179D01*
X155445660Y-92437996D01*
X155378993Y-92476092D01*
X155369800Y-92484082D01*
X155366688Y-92485300D01*
X155364057Y-92489073D01*
X155360587Y-92492090D01*
X155359708Y-92495312D01*
X155352742Y-92505305D01*
X155319409Y-92581496D01*
X155319225Y-92582330D01*
X155318927Y-92582629D01*
X155316668Y-92593983D01*
X155314181Y-92605316D01*
X155314335Y-92605710D01*
X155314169Y-92606547D01*
X155125468Y-92606547D01*
X155128469Y-92601334D01*
X155133929Y-92593503D01*
X155167262Y-92517312D01*
X155167445Y-92516477D01*
X155167744Y-92516179D01*
X155170007Y-92504799D01*
X155172489Y-92493492D01*
X155172335Y-92493099D01*
X155172502Y-92492261D01*
X155172502Y-92377976D01*
X155172335Y-92377137D01*
X155172489Y-92376745D01*
X155170007Y-92365437D01*
X155167744Y-92354058D01*
X155167445Y-92353759D01*
X155167262Y-92352925D01*
X155133929Y-92276734D01*
X155128469Y-92268902D01*
X155123705Y-92260628D01*
X155090372Y-92222534D01*
X155082167Y-92216224D01*
X155074345Y-92209425D01*
X155007677Y-92171330D01*
X155002247Y-92169513D01*
X155000587Y-92167853D01*
X154992433Y-92166231D01*
X154984550Y-92163594D01*
X154982284Y-92164211D01*
X154976669Y-92163095D01*
X154710002Y-92163095D01*
X154686084Y-92167853D01*
X154652260Y-92201677D01*
X154647502Y-92225595D01*
X153826383Y-92225595D01*
X153823705Y-92222534D01*
X153815500Y-92216224D01*
X153807678Y-92209425D01*
X153741010Y-92171330D01*
X153735580Y-92169513D01*
X153733920Y-92167853D01*
X153725766Y-92166231D01*
X153717883Y-92163594D01*
X153715617Y-92164211D01*
X153710002Y-92163095D01*
X153643336Y-92163095D01*
X153637720Y-92164211D01*
X153635455Y-92163594D01*
X153627569Y-92166231D01*
X153619418Y-92167853D01*
X153617758Y-92169512D01*
X153612328Y-92171329D01*
X153545661Y-92209425D01*
X153537841Y-92216220D01*
X153529633Y-92222534D01*
X153496300Y-92260629D01*
X153491540Y-92268893D01*
X153486076Y-92276733D01*
X153452742Y-92352925D01*
X153451417Y-92358960D01*
X153448946Y-92364620D01*
X153415613Y-92517001D01*
X153415484Y-92523741D01*
X153414169Y-92530357D01*
X153193050Y-92530357D01*
X153190371Y-92527295D01*
X153182159Y-92520980D01*
X153174344Y-92514187D01*
X153107678Y-92476092D01*
X153102247Y-92474275D01*
X153100587Y-92472615D01*
X153092435Y-92470993D01*
X153084551Y-92468356D01*
X153082284Y-92468974D01*
X153076669Y-92467857D01*
X152910002Y-92467857D01*
X152904386Y-92468973D01*
X152902121Y-92468356D01*
X152894235Y-92470993D01*
X152886084Y-92472615D01*
X152884424Y-92474274D01*
X152884311Y-92474312D01*
X152900605Y-92288095D01*
X153176669Y-92288095D01*
X153200587Y-92283337D01*
X153234411Y-92249513D01*
X153234411Y-92201677D01*
X153200587Y-92167853D01*
X153176669Y-92163095D01*
X152843335Y-92163095D01*
X152827496Y-92166245D01*
X152824541Y-92165987D01*
X152823218Y-92167096D01*
X152819417Y-92167853D01*
X152804292Y-92182977D01*
X152787898Y-92196734D01*
X152786812Y-92200457D01*
X152785593Y-92201677D01*
X152785593Y-92204641D01*
X152781073Y-92220147D01*
X152747740Y-92601099D01*
X152605835Y-92601099D01*
X152605835Y-92530357D01*
X152604519Y-92523741D01*
X152604391Y-92517001D01*
X152571058Y-92364620D01*
X152568586Y-92358960D01*
X152567262Y-92352925D01*
X152533928Y-92276734D01*
X152528467Y-92268900D01*
X152523704Y-92260628D01*
X152490371Y-92222534D01*
X152482166Y-92216224D01*
X152474344Y-92209425D01*
X152407676Y-92171330D01*
X152402246Y-92169513D01*
X152400586Y-92167853D01*
X152392432Y-92166231D01*
X152384549Y-92163594D01*
X152382283Y-92164211D01*
X152376668Y-92163095D01*
X152310002Y-92163095D01*
X152304386Y-92164211D01*
X152302121Y-92163594D01*
X152294235Y-92166231D01*
X152286084Y-92167853D01*
X152284424Y-92169512D01*
X152278994Y-92171329D01*
X152212327Y-92209425D01*
X152204507Y-92216220D01*
X152196299Y-92222534D01*
X152162966Y-92260629D01*
X152158206Y-92268893D01*
X152152742Y-92276733D01*
X152119408Y-92352925D01*
X152118083Y-92358960D01*
X152115612Y-92364620D01*
X152082279Y-92517001D01*
X152082150Y-92523741D01*
X152080835Y-92530357D01*
X151859716Y-92530357D01*
X151857037Y-92527295D01*
X151848825Y-92520980D01*
X151841010Y-92514187D01*
X151774344Y-92476092D01*
X151768913Y-92474275D01*
X151767253Y-92472615D01*
X151759101Y-92470993D01*
X151751217Y-92468356D01*
X151748950Y-92468974D01*
X151743335Y-92467857D01*
X151576668Y-92467857D01*
X151571052Y-92468973D01*
X151568787Y-92468356D01*
X151560901Y-92470993D01*
X151552750Y-92472615D01*
X151551090Y-92474274D01*
X151550977Y-92474312D01*
X151567271Y-92288095D01*
X151843335Y-92288095D01*
X151867253Y-92283337D01*
X151901077Y-92249513D01*
X151901077Y-92201677D01*
X151867253Y-92167853D01*
X151843335Y-92163095D01*
X151510001Y-92163095D01*
X151494162Y-92166245D01*
X151491207Y-92165987D01*
X151489884Y-92167096D01*
X151486083Y-92167853D01*
X151470958Y-92182977D01*
X151454564Y-92196734D01*
X151453478Y-92200457D01*
X151452259Y-92201677D01*
X151452259Y-92204641D01*
X151447739Y-92220147D01*
X151414406Y-92601099D01*
X151239168Y-92601099D01*
X151239168Y-92225595D01*
X151239136Y-92225437D01*
X151239167Y-92225280D01*
X151239049Y-92225001D01*
X151234410Y-92201677D01*
X151225512Y-92192779D01*
X151220639Y-92181180D01*
X151209270Y-92176537D01*
X151200586Y-92167853D01*
X151188002Y-92167853D01*
X151176353Y-92163096D01*
X151165030Y-92167853D01*
X151152750Y-92167853D01*
X151143852Y-92176750D01*
X151132253Y-92181624D01*
X151119139Y-92201463D01*
X151118926Y-92201677D01*
X151118894Y-92201833D01*
X151118806Y-92201968D01*
X150943335Y-92631693D01*
X150767863Y-92201968D01*
X150767774Y-92201833D01*
X150767743Y-92201677D01*
X150767529Y-92201463D01*
X150754416Y-92181624D01*
X150742816Y-92176750D01*
X150733919Y-92167853D01*
X150721639Y-92167853D01*
X150710316Y-92163096D01*
X150698667Y-92167853D01*
X150686083Y-92167853D01*
X150677398Y-92176537D01*
X150666030Y-92181180D01*
X150661156Y-92192779D01*
X150652259Y-92201677D01*
X150647619Y-92225001D01*
X150647502Y-92225280D01*
X150647532Y-92225437D01*
X150647501Y-92225595D01*
X150205834Y-92225595D01*
X150201076Y-92201677D01*
X150167252Y-92167853D01*
X150119416Y-92167853D01*
X150085592Y-92201677D01*
X150080834Y-92225595D01*
X149991945Y-92225595D01*
X149991945Y-92074206D01*
X164823296Y-92074206D01*
X164823296Y-93443151D01*
G37*
D11*
X125674819Y-80253333D02*
X126389104Y-80253333D01*
X126389104Y-80253333D02*
X126531961Y-80300952D01*
X126531961Y-80300952D02*
X126627200Y-80396190D01*
X126627200Y-80396190D02*
X126674819Y-80539047D01*
X126674819Y-80539047D02*
X126674819Y-80634285D01*
X126674819Y-79253333D02*
X126674819Y-79824761D01*
X126674819Y-79539047D02*
X125674819Y-79539047D01*
X125674819Y-79539047D02*
X125817676Y-79634285D01*
X125817676Y-79634285D02*
X125912914Y-79729523D01*
X125912914Y-79729523D02*
X125960533Y-79824761D01*
X122334700Y-73991428D02*
X122334700Y-72848571D01*
X122334700Y-86991428D02*
X122334700Y-85848571D01*
X122906128Y-86419999D02*
X121763271Y-86419999D01*
X149119580Y-85426666D02*
X149167200Y-85474285D01*
X149167200Y-85474285D02*
X149214819Y-85617142D01*
X149214819Y-85617142D02*
X149214819Y-85712380D01*
X149214819Y-85712380D02*
X149167200Y-85855237D01*
X149167200Y-85855237D02*
X149071961Y-85950475D01*
X149071961Y-85950475D02*
X148976723Y-85998094D01*
X148976723Y-85998094D02*
X148786247Y-86045713D01*
X148786247Y-86045713D02*
X148643390Y-86045713D01*
X148643390Y-86045713D02*
X148452914Y-85998094D01*
X148452914Y-85998094D02*
X148357676Y-85950475D01*
X148357676Y-85950475D02*
X148262438Y-85855237D01*
X148262438Y-85855237D02*
X148214819Y-85712380D01*
X148214819Y-85712380D02*
X148214819Y-85617142D01*
X148214819Y-85617142D02*
X148262438Y-85474285D01*
X148262438Y-85474285D02*
X148310057Y-85426666D01*
X148310057Y-85045713D02*
X148262438Y-84998094D01*
X148262438Y-84998094D02*
X148214819Y-84902856D01*
X148214819Y-84902856D02*
X148214819Y-84664761D01*
X148214819Y-84664761D02*
X148262438Y-84569523D01*
X148262438Y-84569523D02*
X148310057Y-84521904D01*
X148310057Y-84521904D02*
X148405295Y-84474285D01*
X148405295Y-84474285D02*
X148500533Y-84474285D01*
X148500533Y-84474285D02*
X148643390Y-84521904D01*
X148643390Y-84521904D02*
X149214819Y-85093332D01*
X149214819Y-85093332D02*
X149214819Y-84474285D01*
X139686666Y-87374819D02*
X139686666Y-88089104D01*
X139686666Y-88089104D02*
X139639047Y-88231961D01*
X139639047Y-88231961D02*
X139543809Y-88327200D01*
X139543809Y-88327200D02*
X139400952Y-88374819D01*
X139400952Y-88374819D02*
X139305714Y-88374819D01*
X140115238Y-87470057D02*
X140162857Y-87422438D01*
X140162857Y-87422438D02*
X140258095Y-87374819D01*
X140258095Y-87374819D02*
X140496190Y-87374819D01*
X140496190Y-87374819D02*
X140591428Y-87422438D01*
X140591428Y-87422438D02*
X140639047Y-87470057D01*
X140639047Y-87470057D02*
X140686666Y-87565295D01*
X140686666Y-87565295D02*
X140686666Y-87660533D01*
X140686666Y-87660533D02*
X140639047Y-87803390D01*
X140639047Y-87803390D02*
X140067619Y-88374819D01*
X140067619Y-88374819D02*
X140686666Y-88374819D01*
X145948571Y-92034700D02*
X147091429Y-92034700D01*
X146520000Y-92606128D02*
X146520000Y-91463271D01*
X132948571Y-92034700D02*
X134091429Y-92034700D01*
X141449819Y-86706904D02*
X142259342Y-86706904D01*
X142259342Y-86706904D02*
X142354580Y-86659285D01*
X142354580Y-86659285D02*
X142402200Y-86611666D01*
X142402200Y-86611666D02*
X142449819Y-86516428D01*
X142449819Y-86516428D02*
X142449819Y-86325952D01*
X142449819Y-86325952D02*
X142402200Y-86230714D01*
X142402200Y-86230714D02*
X142354580Y-86183095D01*
X142354580Y-86183095D02*
X142259342Y-86135476D01*
X142259342Y-86135476D02*
X141449819Y-86135476D01*
X141545057Y-85706904D02*
X141497438Y-85659285D01*
X141497438Y-85659285D02*
X141449819Y-85564047D01*
X141449819Y-85564047D02*
X141449819Y-85325952D01*
X141449819Y-85325952D02*
X141497438Y-85230714D01*
X141497438Y-85230714D02*
X141545057Y-85183095D01*
X141545057Y-85183095D02*
X141640295Y-85135476D01*
X141640295Y-85135476D02*
X141735533Y-85135476D01*
X141735533Y-85135476D02*
X141878390Y-85183095D01*
X141878390Y-85183095D02*
X142449819Y-85754523D01*
X142449819Y-85754523D02*
X142449819Y-85135476D01*
X127255057Y-77290238D02*
X127207438Y-77385476D01*
X127207438Y-77385476D02*
X127112200Y-77480714D01*
X127112200Y-77480714D02*
X126969342Y-77623571D01*
X126969342Y-77623571D02*
X126921723Y-77718809D01*
X126921723Y-77718809D02*
X126921723Y-77814047D01*
X127159819Y-77766428D02*
X127112200Y-77861666D01*
X127112200Y-77861666D02*
X127016961Y-77956904D01*
X127016961Y-77956904D02*
X126826485Y-78004523D01*
X126826485Y-78004523D02*
X126493152Y-78004523D01*
X126493152Y-78004523D02*
X126302676Y-77956904D01*
X126302676Y-77956904D02*
X126207438Y-77861666D01*
X126207438Y-77861666D02*
X126159819Y-77766428D01*
X126159819Y-77766428D02*
X126159819Y-77575952D01*
X126159819Y-77575952D02*
X126207438Y-77480714D01*
X126207438Y-77480714D02*
X126302676Y-77385476D01*
X126302676Y-77385476D02*
X126493152Y-77337857D01*
X126493152Y-77337857D02*
X126826485Y-77337857D01*
X126826485Y-77337857D02*
X127016961Y-77385476D01*
X127016961Y-77385476D02*
X127112200Y-77480714D01*
X127112200Y-77480714D02*
X127159819Y-77575952D01*
X127159819Y-77575952D02*
X127159819Y-77766428D01*
X127159819Y-76385476D02*
X127159819Y-76956904D01*
X127159819Y-76671190D02*
X126159819Y-76671190D01*
X126159819Y-76671190D02*
X126302676Y-76766428D01*
X126302676Y-76766428D02*
X126397914Y-76861666D01*
X126397914Y-76861666D02*
X126445533Y-76956904D01*
X128252319Y-87219404D02*
X129061842Y-87219404D01*
X129061842Y-87219404D02*
X129157080Y-87171785D01*
X129157080Y-87171785D02*
X129204700Y-87124166D01*
X129204700Y-87124166D02*
X129252319Y-87028928D01*
X129252319Y-87028928D02*
X129252319Y-86838452D01*
X129252319Y-86838452D02*
X129204700Y-86743214D01*
X129204700Y-86743214D02*
X129157080Y-86695595D01*
X129157080Y-86695595D02*
X129061842Y-86647976D01*
X129061842Y-86647976D02*
X128252319Y-86647976D01*
X129252319Y-85647976D02*
X129252319Y-86219404D01*
X129252319Y-85933690D02*
X128252319Y-85933690D01*
X128252319Y-85933690D02*
X128395176Y-86028928D01*
X128395176Y-86028928D02*
X128490414Y-86124166D01*
X128490414Y-86124166D02*
X128538033Y-86219404D01*
X140565057Y-77370238D02*
X140517438Y-77465476D01*
X140517438Y-77465476D02*
X140422200Y-77560714D01*
X140422200Y-77560714D02*
X140279342Y-77703571D01*
X140279342Y-77703571D02*
X140231723Y-77798809D01*
X140231723Y-77798809D02*
X140231723Y-77894047D01*
X140469819Y-77846428D02*
X140422200Y-77941666D01*
X140422200Y-77941666D02*
X140326961Y-78036904D01*
X140326961Y-78036904D02*
X140136485Y-78084523D01*
X140136485Y-78084523D02*
X139803152Y-78084523D01*
X139803152Y-78084523D02*
X139612676Y-78036904D01*
X139612676Y-78036904D02*
X139517438Y-77941666D01*
X139517438Y-77941666D02*
X139469819Y-77846428D01*
X139469819Y-77846428D02*
X139469819Y-77655952D01*
X139469819Y-77655952D02*
X139517438Y-77560714D01*
X139517438Y-77560714D02*
X139612676Y-77465476D01*
X139612676Y-77465476D02*
X139803152Y-77417857D01*
X139803152Y-77417857D02*
X140136485Y-77417857D01*
X140136485Y-77417857D02*
X140326961Y-77465476D01*
X140326961Y-77465476D02*
X140422200Y-77560714D01*
X140422200Y-77560714D02*
X140469819Y-77655952D01*
X140469819Y-77655952D02*
X140469819Y-77846428D01*
X139565057Y-77036904D02*
X139517438Y-76989285D01*
X139517438Y-76989285D02*
X139469819Y-76894047D01*
X139469819Y-76894047D02*
X139469819Y-76655952D01*
X139469819Y-76655952D02*
X139517438Y-76560714D01*
X139517438Y-76560714D02*
X139565057Y-76513095D01*
X139565057Y-76513095D02*
X139660295Y-76465476D01*
X139660295Y-76465476D02*
X139755533Y-76465476D01*
X139755533Y-76465476D02*
X139898390Y-76513095D01*
X139898390Y-76513095D02*
X140469819Y-77084523D01*
X140469819Y-77084523D02*
X140469819Y-76465476D01*
X149319819Y-81811666D02*
X148843628Y-82144999D01*
X149319819Y-82383094D02*
X148319819Y-82383094D01*
X148319819Y-82383094D02*
X148319819Y-82002142D01*
X148319819Y-82002142D02*
X148367438Y-81906904D01*
X148367438Y-81906904D02*
X148415057Y-81859285D01*
X148415057Y-81859285D02*
X148510295Y-81811666D01*
X148510295Y-81811666D02*
X148653152Y-81811666D01*
X148653152Y-81811666D02*
X148748390Y-81859285D01*
X148748390Y-81859285D02*
X148796009Y-81906904D01*
X148796009Y-81906904D02*
X148843628Y-82002142D01*
X148843628Y-82002142D02*
X148843628Y-82383094D01*
X148415057Y-81430713D02*
X148367438Y-81383094D01*
X148367438Y-81383094D02*
X148319819Y-81287856D01*
X148319819Y-81287856D02*
X148319819Y-81049761D01*
X148319819Y-81049761D02*
X148367438Y-80954523D01*
X148367438Y-80954523D02*
X148415057Y-80906904D01*
X148415057Y-80906904D02*
X148510295Y-80859285D01*
X148510295Y-80859285D02*
X148605533Y-80859285D01*
X148605533Y-80859285D02*
X148748390Y-80906904D01*
X148748390Y-80906904D02*
X149319819Y-81478332D01*
X149319819Y-81478332D02*
X149319819Y-80859285D01*
X136544819Y-80386666D02*
X136068628Y-80719999D01*
X136544819Y-80958094D02*
X135544819Y-80958094D01*
X135544819Y-80958094D02*
X135544819Y-80577142D01*
X135544819Y-80577142D02*
X135592438Y-80481904D01*
X135592438Y-80481904D02*
X135640057Y-80434285D01*
X135640057Y-80434285D02*
X135735295Y-80386666D01*
X135735295Y-80386666D02*
X135878152Y-80386666D01*
X135878152Y-80386666D02*
X135973390Y-80434285D01*
X135973390Y-80434285D02*
X136021009Y-80481904D01*
X136021009Y-80481904D02*
X136068628Y-80577142D01*
X136068628Y-80577142D02*
X136068628Y-80958094D01*
X136544819Y-79434285D02*
X136544819Y-80005713D01*
X136544819Y-79719999D02*
X135544819Y-79719999D01*
X135544819Y-79719999D02*
X135687676Y-79815237D01*
X135687676Y-79815237D02*
X135782914Y-79910475D01*
X135782914Y-79910475D02*
X135830533Y-80005713D01*
X136449580Y-84711666D02*
X136497200Y-84759285D01*
X136497200Y-84759285D02*
X136544819Y-84902142D01*
X136544819Y-84902142D02*
X136544819Y-84997380D01*
X136544819Y-84997380D02*
X136497200Y-85140237D01*
X136497200Y-85140237D02*
X136401961Y-85235475D01*
X136401961Y-85235475D02*
X136306723Y-85283094D01*
X136306723Y-85283094D02*
X136116247Y-85330713D01*
X136116247Y-85330713D02*
X135973390Y-85330713D01*
X135973390Y-85330713D02*
X135782914Y-85283094D01*
X135782914Y-85283094D02*
X135687676Y-85235475D01*
X135687676Y-85235475D02*
X135592438Y-85140237D01*
X135592438Y-85140237D02*
X135544819Y-84997380D01*
X135544819Y-84997380D02*
X135544819Y-84902142D01*
X135544819Y-84902142D02*
X135592438Y-84759285D01*
X135592438Y-84759285D02*
X135640057Y-84711666D01*
X136544819Y-83759285D02*
X136544819Y-84330713D01*
X136544819Y-84044999D02*
X135544819Y-84044999D01*
X135544819Y-84044999D02*
X135687676Y-84140237D01*
X135687676Y-84140237D02*
X135782914Y-84235475D01*
X135782914Y-84235475D02*
X135830533Y-84330713D01*
X160576666Y-75184819D02*
X160576666Y-75899104D01*
X160576666Y-75899104D02*
X160529047Y-76041961D01*
X160529047Y-76041961D02*
X160433809Y-76137200D01*
X160433809Y-76137200D02*
X160290952Y-76184819D01*
X160290952Y-76184819D02*
X160195714Y-76184819D01*
X160957619Y-75184819D02*
X161576666Y-75184819D01*
X161576666Y-75184819D02*
X161243333Y-75565771D01*
X161243333Y-75565771D02*
X161386190Y-75565771D01*
X161386190Y-75565771D02*
X161481428Y-75613390D01*
X161481428Y-75613390D02*
X161529047Y-75661009D01*
X161529047Y-75661009D02*
X161576666Y-75756247D01*
X161576666Y-75756247D02*
X161576666Y-75994342D01*
X161576666Y-75994342D02*
X161529047Y-76089580D01*
X161529047Y-76089580D02*
X161481428Y-76137200D01*
X161481428Y-76137200D02*
X161386190Y-76184819D01*
X161386190Y-76184819D02*
X161100476Y-76184819D01*
X161100476Y-76184819D02*
X161005238Y-76137200D01*
X161005238Y-76137200D02*
X160957619Y-76089580D01*
D12*
%TO.C,J1*%
X119510000Y-76410000D02*
X119510000Y-85130000D01*
X120810000Y-74710000D02*
X119510000Y-76410000D01*
X123630000Y-74710000D02*
X120810000Y-74710000D01*
X123630000Y-74710000D02*
X124930000Y-76410000D01*
X124930000Y-76410000D02*
X124930000Y-85130000D01*
X124930000Y-85130000D02*
X119510000Y-85130000D01*
%TO.C,C2*%
X149985000Y-85785580D02*
X149985000Y-85504420D01*
X151005000Y-85785580D02*
X151005000Y-85504420D01*
%TO.C,J2*%
X134810000Y-90510000D02*
X134810000Y-93330000D01*
X134810000Y-90510000D02*
X136510000Y-89210000D01*
X134810000Y-93330000D02*
X136510000Y-94630000D01*
X136510000Y-89210000D02*
X145230000Y-89210000D01*
X136510000Y-94630000D02*
X145230000Y-94630000D01*
X145230000Y-89210000D02*
X145230000Y-94630000D01*
%TO.C,U2*%
X142835000Y-85945000D02*
X142835000Y-85145000D01*
X142835000Y-85945000D02*
X142835000Y-86745000D01*
X145955000Y-85945000D02*
X145955000Y-85145000D01*
X145955000Y-85945000D02*
X145955000Y-86745000D01*
X142885000Y-87245000D02*
X142555000Y-87485000D01*
X142555000Y-87005000D01*
X142885000Y-87245000D01*
G36*
X142885000Y-87245000D02*
G01*
X142555000Y-87485000D01*
X142555000Y-87005000D01*
X142885000Y-87245000D01*
G37*
%TO.C,Q1*%
X127755000Y-74085000D02*
X127755000Y-80505000D01*
X127755000Y-80505000D02*
X128025000Y-80505000D01*
X134655000Y-74085000D02*
X134655000Y-80505000D01*
X134655000Y-80505000D02*
X134385000Y-80505000D01*
X128065000Y-82235000D02*
X127595000Y-82575000D01*
X127595000Y-81895000D01*
X128065000Y-82235000D01*
G36*
X128065000Y-82235000D02*
G01*
X127595000Y-82575000D01*
X127595000Y-81895000D01*
X128065000Y-82235000D01*
G37*
%TO.C,U1*%
X129637500Y-86457500D02*
X129637500Y-85657500D01*
X129637500Y-86457500D02*
X129637500Y-87257500D01*
X132757500Y-86457500D02*
X132757500Y-85657500D01*
X132757500Y-86457500D02*
X132757500Y-87257500D01*
X129687500Y-87757500D02*
X129357500Y-87997500D01*
X129357500Y-87517500D01*
X129687500Y-87757500D01*
G36*
X129687500Y-87757500D02*
G01*
X129357500Y-87997500D01*
X129357500Y-87517500D01*
X129687500Y-87757500D01*
G37*
%TO.C,Q2*%
X141065000Y-74165000D02*
X141065000Y-80585000D01*
X141065000Y-80585000D02*
X141335000Y-80585000D01*
X147965000Y-74165000D02*
X147965000Y-80585000D01*
X147965000Y-80585000D02*
X147695000Y-80585000D01*
X141375000Y-82315000D02*
X140905000Y-82655000D01*
X140905000Y-81975000D01*
X141375000Y-82315000D01*
G36*
X141375000Y-82315000D02*
G01*
X140905000Y-82655000D01*
X140905000Y-81975000D01*
X141375000Y-82315000D01*
G37*
%TO.C,R2*%
X149772500Y-81882258D02*
X149772500Y-81407742D01*
X150817500Y-81882258D02*
X150817500Y-81407742D01*
%TO.C,R1*%
X136997500Y-80457258D02*
X136997500Y-79982742D01*
X138042500Y-80457258D02*
X138042500Y-79982742D01*
%TO.C,C1*%
X137010000Y-84685580D02*
X137010000Y-84404420D01*
X138030000Y-84685580D02*
X138030000Y-84404420D01*
%TO.C,J3*%
X154600000Y-76860000D02*
X154600000Y-79220000D01*
X154600000Y-79820000D02*
X154600000Y-87260000D01*
X155220000Y-76860000D02*
X155220000Y-87260000D01*
X157720000Y-76860000D02*
X157720000Y-87260000D01*
X158240000Y-78027000D02*
X158230000Y-78018000D01*
X158529000Y-77740000D02*
X158518000Y-77730000D01*
X158626000Y-83493000D02*
X158230000Y-83098000D01*
X158914000Y-83205000D02*
X158518000Y-82810000D01*
X161522000Y-86390000D02*
X161126000Y-85994000D01*
X161810000Y-86102000D02*
X161414000Y-85706000D01*
X163920000Y-76860000D02*
X163920000Y-87260000D01*
X166040000Y-76860000D02*
X154600000Y-76860000D01*
X166040000Y-76860000D02*
X166040000Y-87260000D01*
X166040000Y-87260000D02*
X154600000Y-87260000D01*
X158240000Y-81070000D02*
G75*
G02*
X158239585Y-77970477I1780000J1550000D01*
G01*
X158470000Y-77740000D02*
G75*
G02*
X161569523Y-77739585I1550000J-1780000D01*
G01*
X161570000Y-81300000D02*
G75*
G02*
X158470477Y-81300415I-1550000J1780001D01*
G01*
X161800000Y-77970000D02*
G75*
G02*
X161800415Y-81069523I-1780001J-1550000D01*
G01*
X162380000Y-84600000D02*
G75*
G02*
X157660000Y-84600000I-2360000J0D01*
G01*
X157660000Y-84600000D02*
G75*
G02*
X162380000Y-84600000I2360000J0D01*
G01*
X154600000Y-79520000D02*
X153990000Y-79960000D01*
X153990000Y-79080000D01*
X154600000Y-79520000D01*
G36*
X154600000Y-79520000D02*
G01*
X153990000Y-79960000D01*
X153990000Y-79080000D01*
X154600000Y-79520000D01*
G37*
%TD*%
M02*
