M48
; DRILL file {KiCad 9.0.0} date 2026-06-06T08:36:58+0300
; FORMAT={-:-/ absolute / metric / decimal}
; #@! TF.CreationDate,2026-06-06T08:36:58+03:00
; #@! TF.GenerationSoftware,Kicad,Pcbnew,9.0.0
; #@! TF.FileFunction,Plated,1,2,PTH
FMAT,2
METRIC
; #@! TA.AperFunction,Plated,PTH,ViaDrill
T1C0.300
; #@! TA.AperFunction,Plated,PTH,ViaDrill
T2C0.500
; #@! TA.AperFunction,Plated,PTH,ComponentDrill
T3C1.300
; #@! TA.AperFunction,Plated,PTH,ComponentDrill
T4C2.700
%
G90
G05
T1
X128.26Y-85.64
X130.419Y-79.85
X131.7Y-86.78
X132.63Y-86.73
X132.83Y-87.72
X133.25Y-87.03
X134.17Y-85.6
X135.58Y-79.6
X136.38Y-85.98
X137.15Y-86.35
X138.18Y-86.47
X138.76Y-84.94
X138.78Y-85.73
X141.43Y-86.13
X142.32Y-88.31
X143.33Y-88.27
X144.03Y-88.26
X144.8Y-88.16
X148.68Y-85.1
X149.03Y-88.31
T2
X120.12Y-73.84
X120.75Y-90.44
X120.76Y-88.63
X121.33Y-75.32
X121.62Y-73.75
X122.753Y-88.63
X122.803Y-90.44
X122.825Y-75.32
X123.39Y-73.73
X124.32Y-75.32
X124.747Y-88.63
X124.857Y-90.44
X124.975Y-73.97
X125.815Y-75.32
X126.47Y-73.97
X126.74Y-88.63
X126.91Y-90.44
X127.31Y-75.32
X133.7Y-92.88
X133.71Y-91.34
X133.83Y-89.89
X134.12Y-94.22
X134.77Y-89.04
X136.08Y-88.25
X137.2Y-74.16
X137.31Y-75.97
X137.72Y-88.21
X139.12Y-88.21
X139.193Y-74.16
X139.363Y-75.97
X139.669Y-89.727
X139.7Y-93.91
X150.77Y-87.81
X151.83Y-85.84
X151.84Y-75.16
X151.85Y-73.35
X151.91Y-87.09
X153.437Y-90.32
X153.447Y-88.51
X153.843Y-73.35
X153.893Y-75.16
X155.44Y-88.51
X155.49Y-90.32
X155.837Y-73.35
X155.947Y-75.16
X157.01Y-85.15
X157.04Y-83.62
X157.07Y-86.54
X157.433Y-88.51
X157.543Y-90.32
X157.83Y-73.35
X158.0Y-75.16
X158.31Y-82.06
X159.427Y-88.51
X159.597Y-90.32
X161.77Y-82.25
X162.48Y-86.46
X162.62Y-82.94
X162.98Y-85.38
X163.09Y-84.07
T3
X160.02Y-79.52
X160.02Y-84.6
T4
X122.22Y-77.42
X122.22Y-82.42
X137.52Y-91.92
X142.52Y-91.92
M30
